<svg width="14" height="16" viewBox="0 0 14 16" fill="none" xmlns="http://www.w3.org/2000/svg">
<path d="M6.2004 0.000793988C6.41772 -0.000916981 6.61878 -0.00179913 6.83529 0.0195252C8.76438 0.209559 10.371 1.30959 11.5824 2.77124C12.7639 4.21456 13.5177 5.96004 13.7579 7.80981C13.8311 8.40138 13.8373 9.18909 13.7831 9.78526C13.6785 10.9366 13.2763 12.1752 12.5796 13.1064C12.2815 13.5049 11.8208 13.958 11.44 14.2774C10.8873 14.7407 10.1702 15.12 9.47051 15.298C9.17797 15.3725 8.85563 15.4177 8.55545 15.46C8.25938 15.5017 7.93163 15.56 7.63407 15.5319C7.38863 15.529 7.12768 15.4827 6.88658 15.4371C5.72531 15.2174 4.64196 14.705 3.69594 14.0008C3.47429 13.8358 3.27034 13.6454 3.06519 13.4607C2.96778 13.373 2.86617 13.2902 2.76904 13.2023C1.70619 12.2395 0.643006 10.2001 0.271311 8.83023C0.114862 8.25367 0.0364445 7.6438 0.00698465 7.04753C-0.0629066 5.63276 0.398604 4.2759 1.08267 3.05431C1.39143 2.50294 1.75169 1.96888 2.17851 1.5017C2.31915 1.34723 2.48389 1.21656 2.66634 1.1148C2.79643 1.04295 2.94978 0.988153 3.08932 0.934748C3.28644 0.860359 3.4829 0.784232 3.67868 0.706389C3.90799 0.613061 4.10234 0.510263 4.32226 0.41435C4.54421 0.317436 4.7734 0.238018 5.00773 0.176828C5.41532 0.0679772 5.78157 0.0194751 6.2004 0.000793988Z" fill="black"/>
<path d="M1.34743 6.77625C1.26819 5.99027 1.34435 5.04477 1.53458 4.2809C1.88308 2.88137 2.67112 1.60851 3.92032 0.850424C5.0869 0.142487 6.32168 0.0451558 7.63239 0.367471C11.8606 1.46326 14.4791 6.77474 13.4085 10.8777C13.2926 11.3248 13.1277 11.7576 12.9168 12.1685C12.8913 12.2189 12.8141 12.3726 12.7811 12.4132C11.6151 14.4672 9.43617 15.2869 7.18729 14.6087C7.04443 14.5763 6.74375 14.4599 6.6109 14.4054C5.62347 14.0008 4.809 13.4192 4.06416 12.6616C2.75059 11.3257 1.93504 9.78152 1.52851 7.96149C1.46631 7.6806 1.41684 7.39701 1.38023 7.11166C1.36842 7.02052 1.34678 6.8669 1.34743 6.77625Z" fill="black"/>
<path d="M1.34743 6.77625C1.26819 5.99027 1.34435 5.04477 1.53458 4.2809C1.88308 2.88137 2.67112 1.60851 3.92032 0.850424C5.0869 0.142487 6.32168 0.0451558 7.63239 0.367471C7.60293 0.448687 7.52268 0.468299 7.44546 0.461341C6.65819 0.390399 5.87751 0.466305 5.11665 0.68046C5.0134 0.709517 4.79789 0.75173 4.75304 0.862766C4.69167 1.06429 4.64812 1.34081 4.72203 1.54583C4.74188 1.59732 4.7876 1.6581 4.836 1.6707C5.08518 1.73561 5.49968 1.59244 5.74501 1.53941C5.92444 1.5005 6.105 1.46696 6.28643 1.43884C6.71897 1.37243 7.16046 1.34679 7.58586 1.4692C7.79815 1.53031 8.00692 1.61757 8.21338 1.69688C8.25934 1.71455 8.3734 1.74538 8.35576 1.80176C8.32408 1.82865 8.31645 1.81832 8.2824 1.83299C5.88661 1.09021 3.77688 2.31265 3.05876 4.68134C2.85622 5.34941 2.80127 5.90643 2.79583 6.60224C2.80014 7.08543 2.85843 7.48798 2.96327 7.96157C3.26987 9.37614 3.98214 10.6707 5.01295 11.687C5.21448 11.8851 5.40523 12.0431 5.62671 12.2162C5.5841 12.3557 5.74356 12.4487 5.84057 12.5203C6.22995 12.8081 6.68916 13.0161 7.14856 13.1551C7.78248 13.3496 8.43076 13.3547 9.08552 13.3651C9.32317 13.3689 9.23824 13.8608 9.19401 13.9906C9.01906 14.5037 8.566 14.6582 8.06223 14.6248C7.95177 14.6175 7.24219 14.5766 7.18729 14.6088C7.04443 14.5763 6.74375 14.4599 6.6109 14.4054C5.62347 14.0008 4.809 13.4192 4.06416 12.6616C2.75059 11.3257 1.93504 9.78152 1.52851 7.96149C1.46631 7.6806 1.41684 7.39701 1.38023 7.11166C1.36842 7.02052 1.34678 6.8669 1.34743 6.77625Z" fill="#FEA600"/>
<path d="M1.34743 6.77625C1.26819 5.99027 1.34435 5.04477 1.53458 4.2809C1.88308 2.88137 2.67112 1.60851 3.92032 0.850424C5.0869 0.142487 6.32168 0.0451558 7.63239 0.367471C7.60293 0.448687 7.52268 0.468299 7.44546 0.461341C6.65819 0.390399 5.87751 0.466305 5.11665 0.68046C5.0134 0.709517 4.79789 0.75173 4.75304 0.862766C4.69167 1.06429 4.64812 1.34081 4.72203 1.54583C4.74188 1.59732 4.7876 1.6581 4.836 1.6707C5.08518 1.73561 5.49968 1.59244 5.74501 1.53941C5.92444 1.5005 6.105 1.46696 6.28643 1.43884C6.71897 1.37243 7.16046 1.34679 7.58586 1.4692C7.79815 1.53031 8.00692 1.61757 8.21338 1.69688C8.25934 1.71455 8.3734 1.74538 8.35576 1.80176C8.32408 1.82865 8.31645 1.81832 8.2824 1.83299C5.88661 1.09021 3.77688 2.31265 3.05876 4.68134C2.85622 5.34941 2.80127 5.90643 2.79583 6.60224L2.7835 6.59525C2.75072 6.51606 2.72755 6.33955 2.71297 6.24885C2.59694 5.52785 2.715 4.78672 2.97589 4.10954C3.00668 4.02962 3.06198 3.93221 3.08277 3.8506C3.13732 3.63649 3.20258 3.31383 3.121 3.10436C3.00642 2.81013 2.61301 2.78471 2.35945 2.88586C2.32839 2.89804 2.28595 2.92354 2.26449 2.9518C2.14421 3.15409 2.00481 3.47096 1.92179 3.68721C1.68622 4.31132 1.52154 4.95993 1.43087 5.62084C1.4099 5.78407 1.39392 5.94791 1.38294 6.11213C1.37765 6.19794 1.37351 6.74191 1.34743 6.77625Z" fill="#FEFE74"/>
<path d="M7.63232 0.367188C11.8605 1.46298 14.4791 6.77446 13.4084 10.8774C13.2925 11.3245 13.1276 11.7573 12.9167 12.1682C12.8913 12.2186 12.8141 12.3723 12.781 12.4129L12.7665 12.4088C12.7353 12.431 12.6282 12.5764 12.5868 12.6212C12.3448 12.8833 12.1238 13.1834 11.8183 13.3747C11.6821 13.46 11.5189 13.5362 11.3527 13.4941C11.117 13.4344 10.8853 13.1726 10.7497 12.98C10.735 12.9592 10.706 12.8945 10.7177 12.8762C10.7491 12.8273 10.8619 12.7565 10.907 12.7248C11.5213 12.2938 12.0691 11.7023 12.2392 10.9511C12.2648 10.8383 12.3386 10.3598 12.2883 10.2794C12.39 9.92747 12.4727 9.59405 12.5172 9.22929C12.8806 6.25058 11.1847 2.87132 8.28232 1.8327C8.31638 1.81803 8.32401 1.82836 8.35568 1.80148C8.37333 1.7451 8.25926 1.71427 8.21331 1.6966C8.00684 1.61729 7.79808 1.53003 7.58579 1.46892C7.16039 1.3465 6.7189 1.37215 6.28636 1.43856C6.10493 1.46668 5.92437 1.50022 5.74493 1.53912C5.4996 1.59216 5.08511 1.73532 4.83593 1.67042C4.78753 1.65782 4.74181 1.59703 4.72195 1.54555C4.64804 1.34053 4.6916 1.06401 4.75297 0.862482C4.79782 0.751446 5.01333 0.709234 5.11658 0.680176C5.87744 0.466022 6.65812 0.390115 7.44538 0.461057C7.5226 0.468016 7.60286 0.448403 7.63232 0.367188Z" fill="#FEA600"/>
<path d="M12.2884 10.2773C12.3387 10.3578 12.2649 10.8363 12.2393 10.949C12.0692 11.7002 11.5213 12.2917 10.9071 12.7228C10.862 12.7544 10.7492 12.8253 10.7178 12.8741C10.7061 12.8925 10.7351 12.9571 10.7498 12.978C10.8854 13.1706 11.1171 13.4323 11.3528 13.492C11.519 13.5341 11.6822 13.4579 11.8184 13.3726C12.1239 13.1813 12.3449 12.8812 12.5869 12.6191C12.6283 12.5743 12.7354 12.4289 12.7666 12.4067L12.7811 12.4108C11.6151 14.4648 9.43618 15.2845 7.1873 14.6064C7.2422 14.5742 7.95178 14.6152 8.06223 14.6225C8.566 14.6559 9.01906 14.5013 9.19402 13.9882C9.23825 13.8585 9.32318 13.3665 9.08553 13.3628C8.43077 13.3523 7.78249 13.3472 7.14857 13.1528C6.68916 13.0137 6.22995 12.8057 5.84057 12.5179C5.74357 12.4463 5.58411 12.3533 5.62671 12.2138C6.10137 12.5677 6.62886 12.8445 7.18976 13.0339C9.10235 13.6709 11.0277 12.892 11.9526 11.0957C12.0935 10.8219 12.191 10.5692 12.2884 10.2773Z" fill="#FEFE74"/>
<path d="M5.42104 2.13875C6.28342 1.71871 7.39994 1.74627 8.28833 2.06249C11.4116 3.17424 13.1204 7.21508 12.0703 10.2933C11.7471 11.2407 11.1998 11.9938 10.3602 12.5336C9.34855 13.1188 8.17779 13.1832 7.08351 12.7663C3.96741 11.5789 2.18722 7.58579 3.32303 4.46404C3.68867 3.4591 4.44429 2.58159 5.42104 2.13875Z" fill="#FEA600"/>
<path d="M5.4209 2.13875C6.28328 1.71871 7.3998 1.74627 8.28819 2.06249C11.4114 3.17424 13.1203 7.21508 12.0702 10.2933C11.747 11.2407 11.1997 11.9938 10.3601 12.5336C10.3602 12.5262 10.3615 12.4895 10.3638 12.4865C10.4205 12.4137 10.5228 12.3172 10.5789 12.2472C10.712 12.0813 10.8349 11.9128 10.9595 11.7424C11.1648 11.4616 11.3552 11.1947 11.482 10.8667C11.8315 9.9626 11.7221 8.80923 11.5103 7.88728C11.413 7.46345 11.2301 6.97531 11.057 6.57743C10.383 5.02766 9.25404 3.44791 7.74183 2.6257C7.467 2.47632 7.14278 2.33295 6.83891 2.25233C6.52342 2.16865 6.14684 2.12514 5.81973 2.11434C5.74591 2.11106 5.67533 2.12071 5.60281 2.12853C5.54871 2.13437 5.46594 2.16287 5.4209 2.13875Z" fill="#DF7A12"/>
<path d="M0.208999 7.48009C0.195163 7.43963 0.192603 7.35326 0.213742 7.31382C0.281007 7.27026 0.411156 7.28284 0.500635 7.26439C0.724464 7.2182 0.941179 7.15705 1.16159 7.09766C1.16997 7.12646 1.17719 7.15744 1.18458 7.18668C1.21303 7.32738 1.22538 7.47052 1.25372 7.61118C1.30255 7.85367 1.36788 8.09608 1.40811 8.3398C1.41205 8.36368 1.42604 8.42506 1.41111 8.44345C1.39101 8.46831 1.35398 8.4807 1.32459 8.49039C1.2239 8.52337 1.11585 8.54315 1.01304 8.56966C0.89145 8.601 0.592084 8.69414 0.486537 8.69816C0.46539 8.69898 0.449987 8.69907 0.434371 8.68331C0.349323 8.59723 0.224246 7.65755 0.208999 7.48009Z" fill="#FEA600"/>
<path d="M0.208999 7.48009C0.195163 7.43963 0.192603 7.35326 0.213742 7.31382C0.281007 7.27026 0.411156 7.28284 0.500635 7.26439C0.724464 7.2182 0.941179 7.15705 1.16159 7.09766C1.16997 7.12646 1.17719 7.15744 1.18458 7.18668C0.925333 7.28952 0.673299 7.39147 0.398527 7.44411C0.35629 7.4522 0.222941 7.45926 0.208999 7.48009Z" fill="#DF7A12"/>
<path d="M0.329582 7.58594C0.348702 7.58586 0.366977 7.58709 0.386032 7.58824C0.46417 7.63715 0.507088 8.13222 0.585292 8.23874C0.67464 8.36035 0.782247 8.33179 0.920273 8.35206C0.983131 8.36125 1.01235 8.36577 1.07327 8.38087L0.979931 8.42994C0.850217 8.49362 0.623016 8.5289 0.52158 8.40696C0.358066 8.21034 0.326177 7.82704 0.329582 7.58594Z" fill="#FEFE74"/>
<path d="M0.486572 8.90415C0.769863 8.83095 1.02618 8.73732 1.28425 8.59699C1.32596 8.57435 1.38662 8.52888 1.43444 8.53135C1.47065 8.55285 1.48041 8.60619 1.49191 8.64623C1.56321 8.88823 1.6432 9.12752 1.73171 9.36377C1.77654 9.48432 1.83247 9.60454 1.87078 9.72697C1.87753 9.74855 1.89812 9.81658 1.88685 9.83521C1.86973 9.86352 1.81944 9.8801 1.78943 9.8906C1.6465 9.94074 1.49542 9.96298 1.35012 10.0039C1.24375 10.034 1.10841 10.0938 1.00329 10.1089C0.985453 10.1115 0.967326 10.1124 0.952973 10.1005C0.859465 10.023 0.586629 9.22205 0.527004 9.05383C0.51028 9.00664 0.49866 8.95306 0.486572 8.90415Z" fill="#FEA600"/>
<path d="M0.486572 8.90415C0.769863 8.83095 1.02618 8.73732 1.28425 8.59699C1.32596 8.57435 1.38662 8.52888 1.43444 8.53135C1.47065 8.55285 1.48041 8.60619 1.49191 8.64623C1.28303 8.75332 1.06562 8.8856 0.849831 8.97324C0.764586 9.00787 0.620052 9.02896 0.527004 9.05383C0.51028 9.00664 0.49866 8.95306 0.486572 8.90415Z" fill="#DF7A12"/>
<path d="M0.752406 9.13281C0.758831 9.13363 0.782399 9.13692 0.789514 9.14315C0.891761 9.23219 1.02444 9.80095 1.15345 9.80448C1.3357 9.80949 1.52776 9.77043 1.71251 9.78118C1.66409 9.82762 1.64417 9.83977 1.58744 9.8707L1.56603 9.87834C1.43658 9.92454 1.20491 10.0308 1.07244 9.98649C0.920015 9.93553 0.696596 9.2399 0.752406 9.13281Z" fill="#FEFE74"/>
<path d="M3.33308 12.1758C3.37525 12.2198 3.41841 12.2698 3.45801 12.3166C3.70537 12.6091 3.96837 12.8749 4.24601 13.1386C4.19024 13.219 4.12909 13.2299 4.03746 13.2595C3.84872 13.3201 3.66276 13.3764 3.47929 13.4518C3.42781 13.476 3.41423 13.4805 3.35899 13.4945C3.29576 13.4564 3.19606 13.358 3.13773 13.305C2.89381 13.0837 2.64337 12.8429 2.44849 12.5762C2.56838 12.5128 2.64227 12.5122 2.76394 12.4646C2.96835 12.3845 3.14416 12.2847 3.33308 12.1758Z" fill="#FEA600"/>
<path d="M3.33308 12.1758C3.37525 12.2198 3.41841 12.2698 3.45801 12.3166C3.70537 12.6091 3.96837 12.8749 4.24601 13.1386C4.19024 13.219 4.12909 13.2299 4.03746 13.2595C3.98252 13.1634 3.82623 13.0238 3.75211 12.9329C3.59917 12.7453 3.42665 12.5532 3.2758 12.3657C3.13623 12.4284 3.01368 12.5596 2.86523 12.6288C2.81504 12.6521 2.68233 12.6974 2.6661 12.7319C2.71879 12.8213 3.36822 13.369 3.47929 13.4518C3.42781 13.476 3.41423 13.4805 3.35899 13.4945C3.29576 13.4564 3.19606 13.358 3.13773 13.305C2.89381 13.0837 2.64337 12.8429 2.44849 12.5762C2.56838 12.5128 2.64227 12.5122 2.76394 12.4646C2.96835 12.3845 3.14416 12.2847 3.33308 12.1758Z" fill="#DF7A12"/>
<path d="M2.85281 12.7031C2.97745 12.7398 3.27362 13.0442 3.39661 13.1314C3.45193 13.1706 3.49703 13.2038 3.56305 13.2323C3.60323 13.2496 3.65869 13.2539 3.68806 13.2766L3.68939 13.2912L3.66097 13.3191C3.63212 13.3379 3.59201 13.3626 3.54972 13.3502C3.31443 13.2805 3.03531 12.966 2.8628 12.7899C2.83842 12.765 2.84818 12.7337 2.85281 12.7031Z" fill="#FEFE74"/>
<path d="M0.202041 6.11201C0.207449 6.04851 0.206202 5.91191 0.280984 5.89664C0.535685 5.84464 0.789819 5.79953 1.03588 5.71101C1.06827 5.69936 1.07894 5.70034 1.10787 5.71581C1.12464 5.74078 1.12288 5.75143 1.1251 5.78124C1.12788 6.14393 1.12195 6.50362 1.15347 6.86542C1.15678 6.90338 1.15022 6.95349 1.14264 6.99038C1.08489 7.0408 0.810703 7.05218 0.724228 7.05983L0.185506 7.10998C0.154832 6.77771 0.160379 6.44309 0.202041 6.11201Z" fill="#FEA600"/>
<path d="M0.201904 6.11201C0.207312 6.04851 0.206065 5.91191 0.280847 5.89664C0.535547 5.84464 0.789682 5.79953 1.03574 5.71101C1.06813 5.69936 1.07881 5.70034 1.10773 5.71581C1.1245 5.74078 1.12274 5.75143 1.12497 5.78124C1.07105 5.7984 0.98634 5.8586 0.930441 5.8866C0.739042 5.98245 0.413851 6.1116 0.201904 6.11201Z" fill="#DF7A12"/>
<path d="M0.302525 6.21484L0.34852 6.21777C0.405725 6.26434 0.376413 6.66958 0.424714 6.76002C0.464013 6.83359 0.587129 6.83837 0.655321 6.84684C0.786496 6.86313 0.876738 6.87781 0.994118 6.93106C0.956468 6.9423 0.90934 6.9531 0.870591 6.96298C0.766817 6.98593 0.464964 7.01326 0.376183 6.9687C0.163136 6.8618 0.218971 6.37735 0.302525 6.21484Z" fill="#FEFE74"/>
<path d="M1.10111 10.4416C1.00213 10.2768 1.04933 10.2786 1.20049 10.2524C1.46997 10.2058 1.72324 10.0808 1.9608 9.94922L2.01444 10.0538C2.07852 10.1843 2.14651 10.331 2.2138 10.4583C2.32275 10.6554 2.42124 10.8393 2.5347 11.0349C2.51755 11.0524 2.49798 11.0736 2.47966 11.0891C2.29744 11.1642 2.07368 11.2008 1.88654 11.2702C1.83298 11.2901 1.66532 11.3519 1.61518 11.3499C1.51174 11.2775 1.18068 10.5998 1.10111 10.4416Z" fill="#FEA600"/>
<path d="M1.10111 10.4416C1.00213 10.2768 1.04933 10.2786 1.20049 10.2524C1.46997 10.2058 1.72324 10.0808 1.9608 9.94922L2.01444 10.0538C1.91054 10.0753 1.81956 10.1466 1.72565 10.2009C1.65608 10.2416 1.58395 10.2777 1.50971 10.3091C1.44898 10.3341 1.11795 10.4294 1.10111 10.4416Z" fill="#DF7A12"/>
<path d="M2.21394 10.457C2.32289 10.6541 2.42139 10.838 2.53484 11.0336C2.51769 11.0512 2.49812 11.0723 2.4798 11.0878C2.436 10.9833 2.19076 10.5236 2.21394 10.457Z" fill="#DF7A12"/>
<path d="M1.32199 10.5078C1.38311 10.5327 1.52569 10.8523 1.59596 10.9302C1.72083 11.0686 1.83648 10.996 2.00319 10.9857C2.08172 10.9807 2.13319 10.9826 2.21058 10.9869C2.16555 11.0159 2.12105 11.0413 2.07461 11.068C1.92485 11.144 1.70392 11.2308 1.56377 11.1078C1.42854 10.9893 1.27821 10.7121 1.26245 10.5382C1.2764 10.5187 1.29796 10.5157 1.32199 10.5078Z" fill="#FEFE74"/>
<path d="M1.69629 11.517C1.96966 11.4495 2.22567 11.3763 2.46589 11.2238C2.50272 11.2004 2.54793 11.1705 2.59231 11.1719C2.6186 11.1896 2.63971 11.2119 2.65771 11.2381C2.82623 11.4825 2.98708 11.7355 3.17453 11.966C3.21411 12.0147 3.26837 12.0641 3.24031 12.1299C3.21428 12.1589 3.18 12.1661 3.14172 12.1777C2.99957 12.2093 2.38517 12.427 2.32414 12.4025C2.25155 12.3735 1.86556 11.7901 1.79883 11.6838C1.76072 11.6279 1.73042 11.5756 1.69629 11.517Z" fill="#FEA600"/>
<path d="M1.69629 11.517C1.96966 11.4495 2.22567 11.3763 2.46589 11.2238C2.50272 11.2004 2.54793 11.1705 2.59231 11.1719C2.6186 11.1896 2.63971 11.2119 2.65771 11.2381C2.82623 11.4825 2.98708 11.7355 3.17453 11.966C3.21411 12.0147 3.26837 12.0641 3.24031 12.1299C3.21428 12.1589 3.18 12.1661 3.14172 12.1777C3.0498 12.0446 2.96109 11.9154 2.87493 11.7801C2.81693 11.6891 2.63213 11.3639 2.57318 11.3026C2.4163 11.3844 2.32194 11.4987 2.1592 11.5782C2.02815 11.6422 1.93015 11.6435 1.81026 11.6802L1.79883 11.6838C1.76072 11.6279 1.73042 11.5756 1.69629 11.517Z" fill="#DF7A12"/>
<path d="M2.03257 11.7344C2.14317 11.7541 2.28752 12.0615 2.40807 12.1322C2.49926 12.1857 2.76659 12.1114 2.77979 12.1922C2.7633 12.2213 2.73621 12.2327 2.70648 12.2506C2.37172 12.4152 2.24862 12.2354 2.0948 11.9601C2.05369 11.8865 1.96234 11.7974 2.03257 11.7344Z" fill="#FEFE74"/>
<path d="M4.32538 13.2227C4.36094 13.2378 4.58048 13.4218 4.62725 13.4607C4.90017 13.6878 5.18697 13.8844 5.47733 14.0883C5.29167 14.1585 5.09199 14.2121 4.90422 14.2789C4.82471 14.307 4.73481 14.3361 4.65346 14.3559C4.64312 14.3567 4.60388 14.3591 4.59734 14.3571C4.36887 14.2869 3.63503 13.7833 3.50659 13.6144C3.5976 13.571 3.70497 13.5506 3.80133 13.5153C4.00657 13.4403 4.15083 13.3464 4.32538 13.2227Z" fill="#DF7A12"/>
<path d="M4.1677 13.3945C4.28298 13.5246 4.55868 13.7453 4.62619 13.9246C4.63324 13.9433 4.62213 13.9589 4.61318 13.9726C4.55216 14.0036 4.45387 13.9651 4.38799 13.9468C4.24348 13.8969 3.94636 13.7748 3.84546 13.6679C3.92592 13.5904 4.07926 13.4573 4.1677 13.3945Z" fill="#FEA600"/>
<path d="M5.56065 14.168C5.64698 14.1669 5.73095 14.22 5.80567 14.2628C6.02506 14.3885 6.23539 14.4867 6.46719 14.5841C6.5966 14.6385 6.8082 14.7101 6.9207 14.7743C6.75617 14.8581 6.37533 14.9577 6.18065 15.0154C6.15686 15.0207 6.13256 15.0264 6.10823 15.0285C5.98977 15.0384 5.00568 14.6301 4.88625 14.5254C4.86928 14.5105 4.8588 14.4943 4.8584 14.4716C4.93566 14.427 5.1554 14.3667 5.25297 14.319C5.34608 14.2734 5.46975 14.2028 5.56065 14.168Z" fill="#DF7A12"/>
<path d="M0.276678 5.61218C0.291285 5.41132 0.37507 5.12741 0.441055 4.93766C0.470203 4.85387 0.699079 4.80639 0.784151 4.78055L1.2371 4.64062C1.22831 4.70227 1.22648 4.75845 1.21488 4.82269C1.20627 4.92003 1.15124 5.53223 1.10884 5.57326C1.06869 5.61213 0.979677 5.61595 0.92619 5.62014C0.804871 5.64711 0.680713 5.66593 0.557721 5.68412C0.486114 5.69617 0.335762 5.74492 0.279633 5.69591C0.264903 5.66849 0.2726 5.64434 0.276678 5.61218Z" fill="#FEA600"/>
<path d="M0.276611 5.61218C0.291218 5.41132 0.375002 5.12741 0.440988 4.93766C0.470136 4.85387 0.699011 4.80639 0.784084 4.78055L1.23704 4.64062C1.22824 4.70227 1.22641 4.75845 1.21481 4.82269C1.21436 4.78538 1.22105 4.7826 1.20296 4.75999C1.19073 4.76101 1.04098 4.83581 1.0171 4.85155C0.891346 4.93445 0.573294 5.0029 0.482806 5.09522C0.410518 5.16897 0.351984 5.54862 0.276611 5.61218Z" fill="#DF7A12"/>
<path d="M0.557611 5.6854C0.42514 5.59607 0.407858 5.50989 0.431024 5.35042C0.438057 5.30204 0.490206 5.14389 0.530564 5.11592C0.549159 5.11118 0.593972 5.1103 0.599585 5.1355C0.620568 5.22986 0.56878 5.39334 0.612666 5.47815C0.679644 5.51982 0.992091 5.43141 1.05139 5.51469C1.03628 5.57306 0.975137 5.58107 0.926081 5.62142C0.804762 5.6484 0.680604 5.66721 0.557611 5.6854Z" fill="#FEFE74"/>
<path d="M0.647431 4.65667C0.612867 4.66499 0.595298 4.67255 0.561341 4.66635C0.551428 4.65871 0.545405 4.65829 0.544125 4.64471C0.535369 4.55199 0.849859 3.80674 0.919323 3.72293C0.943736 3.69348 0.982732 3.67128 1.01652 3.65408C1.08127 3.6211 1.48273 3.44738 1.52498 3.44531C1.58986 3.47664 1.52004 3.61456 1.50054 3.66748C1.44769 3.82375 1.40111 3.98208 1.36093 4.14208C1.33436 4.24744 1.31546 4.35725 1.279 4.45916C1.251 4.53742 1.18061 4.55262 1.10634 4.55442C1.06039 4.56228 1.00801 4.56992 0.962898 4.57911C0.85923 4.60284 0.748702 4.62576 0.647431 4.65667Z" fill="#FEA600"/>
<path d="M0.647431 4.65667C0.612867 4.66499 0.595298 4.67255 0.561341 4.66635C0.551428 4.65871 0.545405 4.65829 0.544125 4.64471C0.535369 4.55199 0.849859 3.80674 0.919323 3.72293C0.943736 3.69348 0.982732 3.67128 1.01652 3.65408C1.08127 3.6211 1.48273 3.44738 1.52498 3.44531C1.58986 3.47664 1.52004 3.61456 1.50054 3.66748C1.48147 3.65004 1.45853 3.62528 1.43169 3.63286C1.37433 3.64905 1.08265 3.74001 1.06138 3.77848C0.972843 3.93858 0.686435 4.51299 0.647431 4.65667Z" fill="#DF7A12"/>
<path d="M0.962914 4.57837C0.773058 4.53147 0.800819 4.41803 0.873492 4.27337C0.928727 4.16341 1.00648 3.90366 1.09813 3.83203L1.11691 3.84042C1.13535 4.02192 1.01568 4.24243 0.975978 4.40773C1.04244 4.43945 1.12896 4.44699 1.15584 4.50212C1.14574 4.53327 1.13916 4.52926 1.10636 4.55368C1.0604 4.56154 1.00803 4.56918 0.962914 4.57837Z" fill="#FEFE74"/>
<path d="M7.09743 14.8245C7.15127 14.8214 7.22561 14.845 7.27912 14.8599C7.56953 14.9405 7.86429 14.9989 8.16472 15.026C8.18966 15.0283 8.21223 15.0353 8.22733 15.0562C8.21715 15.135 7.68663 15.3339 7.58972 15.3397C7.19935 15.3029 6.81268 15.2341 6.43359 15.1341C6.55738 15.0272 6.7934 14.9844 6.93676 14.8938C6.97401 14.8703 7.05706 14.8346 7.09743 14.8245Z" fill="#DF7A12"/>
<path d="M1.27814 3.38255C1.24242 3.39269 1.13879 3.4066 1.10411 3.39611C1.09035 3.33612 1.48987 2.6457 1.58004 2.58086C1.61727 2.55409 1.9647 2.44999 2.01044 2.47713L2.01551 2.50358C1.9663 2.62375 1.87553 2.77327 1.81677 2.89724C1.75482 3.02794 1.69183 3.17951 1.62239 3.30571C1.60826 3.33138 1.54964 3.33821 1.52155 3.34106L1.50922 3.34222C1.42745 3.34926 1.35817 3.36644 1.27814 3.38255Z" fill="#DF7A12"/>
<path d="M1.27807 3.38366L1.26147 3.37557C1.26297 3.32751 1.53184 2.84729 1.57724 2.8125L1.58547 2.81783C1.59563 2.86879 1.52635 3.28613 1.50915 3.34333C1.42738 3.35038 1.35809 3.36755 1.27807 3.38366Z" fill="#FEA600"/>
<path d="M2.7124 1.50439C2.72621 1.5037 2.7188 1.50222 2.73341 1.51295C2.73331 1.5204 2.73375 1.53111 2.73014 1.53591C2.62642 1.66443 2.51831 1.79888 2.41396 1.92654C2.31859 2.04322 2.19294 2.28021 2.07354 2.34898C1.98245 2.35363 1.86326 2.35043 1.77017 2.35047C1.75469 2.35001 1.76272 2.352 1.74683 2.34203C1.74761 2.28243 1.92642 2.06274 1.97076 2.01356C2.02962 1.94829 2.18703 1.71682 2.25311 1.67698C2.35809 1.61371 2.59265 1.54528 2.7124 1.50439Z" fill="#DF7A12"/>
<path d="M9.91533 14.8984L9.92772 14.9091C9.91336 15.0731 8.33689 15.3261 8.1177 15.3114C8.11311 15.306 8.0962 15.2826 8.10556 15.2757C8.16817 15.229 8.34871 15.0635 8.4233 15.0613C8.90491 15.0471 9.45045 15.0637 9.91533 14.8984Z" fill="#DF7A12"/>
<path d="M3.16364 1.06857L3.1799 1.06641L3.18849 1.07453C3.17373 1.10525 3.15538 1.12784 3.13408 1.15418C2.9813 1.34317 2.83104 1.37565 2.60297 1.4018L2.58133 1.40229L2.57349 1.39252L2.5784 1.3708C2.66606 1.26017 3.02823 1.11901 3.16364 1.06857Z" fill="#DF7A12"/>
</svg>
