<svg width="14" height="16" viewBox="0 0 14 16" fill="none" xmlns="http://www.w3.org/2000/svg">
<path d="M7.61869 0.000793988C7.40137 -0.000916981 7.20031 -0.00179913 6.9838 0.0195252C5.05471 0.209559 3.44812 1.30959 2.23674 2.77124C1.05515 4.21456 0.301417 5.96004 0.0611429 7.80981C-0.0120554 8.40138 -0.0182105 9.18909 0.0359497 9.78526C0.140577 10.9366 0.542758 12.1752 1.23945 13.1064C1.53758 13.5049 1.99827 13.958 2.37912 14.2774C2.9318 14.7407 3.64884 15.12 4.34858 15.298C4.64112 15.3725 4.96346 15.4177 5.26364 15.46C5.55971 15.5017 5.88746 15.56 6.18502 15.5319C6.43046 15.529 6.69141 15.4827 6.93251 15.4371C8.09378 15.2174 9.17713 14.705 10.1232 14.0008C10.3448 13.8358 10.5488 13.6454 10.7539 13.4607C10.8513 13.373 10.9529 13.2902 11.0501 13.2023C12.1129 12.2395 13.1761 10.2001 13.5478 8.83023C13.7042 8.25367 13.7826 7.6438 13.8121 7.04753C13.882 5.63276 13.4205 4.2759 12.7364 3.05431C12.4277 2.50294 12.0674 1.96888 11.6406 1.5017C11.4999 1.34723 11.3352 1.21656 11.1528 1.1148C11.0227 1.04295 10.8693 0.988153 10.7298 0.934748C10.5327 0.860359 10.3362 0.784232 10.1404 0.706389C9.91111 0.613061 9.71675 0.510263 9.49683 0.41435C9.27488 0.317436 9.04569 0.238018 8.81136 0.176828C8.40377 0.0679772 8.03752 0.0194751 7.61869 0.000793988Z" fill="black"/>
<path d="M12.4717 6.77625C12.5509 5.99027 12.4747 5.04477 12.2845 4.2809C11.936 2.88137 11.148 1.60851 9.89877 0.850424C8.7322 0.142487 7.49741 0.0451558 6.1867 0.367471C1.95851 1.46326 -0.660049 6.77474 0.410599 10.8777C0.526469 11.3248 0.691412 11.7576 0.902308 12.1685C0.927747 12.2189 1.00497 12.3726 1.03804 12.4132C2.20396 14.4672 4.38292 15.2869 6.6318 14.6087C6.77467 14.5763 7.07534 14.4599 7.20819 14.4054C8.19562 14.0008 9.01009 13.4192 9.75493 12.6616C11.0685 11.3257 11.884 9.78152 12.2906 7.96149C12.3528 7.6806 12.4023 7.39701 12.4389 7.11166C12.4507 7.02052 12.4723 6.8669 12.4717 6.77625Z" fill="black"/>
<path d="M12.4717 6.77625C12.5509 5.99027 12.4747 5.04477 12.2845 4.2809C11.936 2.88137 11.148 1.60851 9.89877 0.850424C8.7322 0.142487 7.49741 0.0451558 6.1867 0.367471C6.21616 0.448687 6.29642 0.468299 6.37364 0.461341C7.1609 0.390399 7.94158 0.466305 8.70244 0.68046C8.80569 0.709517 9.0212 0.75173 9.06605 0.862766C9.12742 1.06429 9.17098 1.34081 9.09706 1.54583C9.07721 1.59732 9.03149 1.6581 8.98309 1.6707C8.73391 1.73561 8.31941 1.59244 8.07408 1.53941C7.89465 1.5005 7.71409 1.46696 7.53266 1.43884C7.10012 1.37243 6.65863 1.34679 6.23323 1.4692C6.02094 1.53031 5.81217 1.61757 5.60571 1.69688C5.55976 1.71455 5.44569 1.74538 5.46333 1.80176C5.49501 1.82865 5.50264 1.81832 5.5367 1.83299C7.93248 1.09021 10.0422 2.31265 10.7603 4.68134C10.9629 5.34941 11.0178 5.90643 11.0233 6.60224C11.019 7.08543 10.9607 7.48798 10.8558 7.96157C10.5492 9.37614 9.83695 10.6707 8.80614 11.687C8.60461 11.8851 8.41386 12.0431 8.19238 12.2162C8.23499 12.3557 8.07553 12.4487 7.97852 12.5203C7.58915 12.8081 7.12993 13.0161 6.67053 13.1551C6.03661 13.3496 5.38833 13.3547 4.73357 13.3651C4.49592 13.3689 4.58085 13.8608 4.62508 13.9906C4.80004 14.5037 5.25309 14.6582 5.75687 14.6248C5.86732 14.6175 6.5769 14.5766 6.6318 14.6088C6.77467 14.5763 7.07534 14.4599 7.20819 14.4054C8.19562 14.0008 9.01009 13.4192 9.75493 12.6616C11.0685 11.3257 11.884 9.78152 12.2906 7.96149C12.3528 7.6806 12.4023 7.39701 12.4389 7.11166C12.4507 7.02052 12.4723 6.8669 12.4717 6.77625Z" fill="#FEA600"/>
<path d="M12.4717 6.77625C12.5509 5.99027 12.4747 5.04477 12.2845 4.2809C11.936 2.88137 11.148 1.60851 9.89877 0.850424C8.7322 0.142487 7.49741 0.0451558 6.1867 0.367471C6.21616 0.448687 6.29642 0.468299 6.37364 0.461341C7.1609 0.390399 7.94158 0.466305 8.70244 0.68046C8.80569 0.709517 9.0212 0.75173 9.06605 0.862766C9.12742 1.06429 9.17098 1.34081 9.09706 1.54583C9.07721 1.59732 9.03149 1.6581 8.98309 1.6707C8.73391 1.73561 8.31941 1.59244 8.07408 1.53941C7.89465 1.5005 7.71409 1.46696 7.53266 1.43884C7.10012 1.37243 6.65863 1.34679 6.23323 1.4692C6.02094 1.53031 5.81217 1.61757 5.60571 1.69688C5.55976 1.71455 5.44569 1.74538 5.46333 1.80176C5.49501 1.82865 5.50264 1.81832 5.5367 1.83299C7.93248 1.09021 10.0422 2.31265 10.7603 4.68134C10.9629 5.34941 11.0178 5.90643 11.0233 6.60224L11.0356 6.59525C11.0684 6.51606 11.0915 6.33955 11.1061 6.24885C11.2222 5.52785 11.1041 4.78672 10.8432 4.10954C10.8124 4.02962 10.7571 3.93221 10.7363 3.8506C10.6818 3.63649 10.6165 3.31383 10.6981 3.10436C10.8127 2.81013 11.2061 2.78471 11.4596 2.88586C11.4907 2.89804 11.5331 2.92354 11.5546 2.9518C11.6749 3.15409 11.8143 3.47096 11.8973 3.68721C12.1329 4.31132 12.2976 4.95993 12.3882 5.62084C12.4092 5.78407 12.4252 5.94791 12.4362 6.11213C12.4414 6.19794 12.4456 6.74191 12.4717 6.77625Z" fill="#FEFE74"/>
<path d="M6.18677 0.367188C1.95859 1.46298 -0.659974 6.77446 0.410674 10.8774C0.526544 11.3245 0.691486 11.7573 0.902382 12.1682C0.927821 12.2186 1.00504 12.3723 1.03811 12.4129L1.05255 12.4088C1.08382 12.431 1.19091 12.5764 1.23227 12.6212C1.47426 12.8833 1.69525 13.1834 2.00077 13.3747C2.13699 13.46 2.30021 13.5362 2.46638 13.4941C2.70206 13.4344 2.9338 13.1726 3.06936 12.98C3.08405 12.9592 3.1131 12.8945 3.10137 12.8762C3.07002 12.8273 2.95719 12.7565 2.91205 12.7248C2.29783 12.2938 1.74999 11.7023 1.57988 10.9511C1.55427 10.8383 1.4805 10.3598 1.5308 10.2794C1.42905 9.92747 1.34641 9.59405 1.30194 9.22929C0.938489 6.25058 2.63444 2.87132 5.53677 1.8327C5.50272 1.81803 5.49508 1.82836 5.46341 1.80148C5.44576 1.7451 5.55983 1.71427 5.60578 1.6966C5.81225 1.61729 6.02101 1.53003 6.2333 1.46892C6.65871 1.3465 7.10019 1.37215 7.53274 1.43856C7.71417 1.46668 7.89472 1.50022 8.07416 1.53912C8.31949 1.59216 8.73398 1.73532 8.98316 1.67042C9.03156 1.65782 9.07729 1.59703 9.09714 1.54555C9.17105 1.34053 9.12749 1.06401 9.06613 0.862482C9.02127 0.751446 8.80576 0.709234 8.70251 0.680176C7.94165 0.466022 7.16098 0.390115 6.37371 0.461057C6.29649 0.468016 6.21623 0.448403 6.18677 0.367188Z" fill="#FEA600"/>
<path d="M1.53072 10.2773C1.48042 10.3578 1.55419 10.8363 1.5798 10.949C1.74991 11.7002 2.29775 12.2917 2.91197 12.7228C2.95711 12.7544 3.06994 12.8253 3.10129 12.8741C3.11302 12.8925 3.08397 12.9571 3.06928 12.978C2.93372 13.1706 2.70198 13.4323 2.4663 13.492C2.30013 13.5341 2.13691 13.4579 2.00069 13.3726C1.69517 13.1813 1.47418 12.8812 1.23219 12.6191C1.19083 12.5743 1.08374 12.4289 1.05247 12.4067L1.03803 12.4108C2.20395 14.4648 4.38291 15.2845 6.63179 14.6064C6.57689 14.5742 5.86731 14.6152 5.75686 14.6225C5.25309 14.6559 4.80003 14.5013 4.62508 13.9882C4.58085 13.8585 4.49591 13.3665 4.73356 13.3628C5.38833 13.3523 6.03661 13.3472 6.67053 13.1528C7.12993 13.0137 7.58914 12.8057 7.97852 12.5179C8.07552 12.4463 8.23498 12.3533 8.19238 12.2138C7.71772 12.5677 7.19023 12.8445 6.62933 13.0339C4.71674 13.6709 2.79134 12.892 1.86652 11.0957C1.72562 10.8219 1.62805 10.5692 1.53072 10.2773Z" fill="#FEFE74"/>
<path d="M8.39805 2.13875C7.53567 1.71871 6.41915 1.74627 5.53076 2.06249C2.40753 3.17424 0.698693 7.21508 1.74874 10.2933C2.07198 11.2407 2.61924 11.9938 3.45889 12.5336C4.47054 13.1188 5.6413 13.1832 6.73558 12.7663C9.85168 11.5789 11.6319 7.58579 10.4961 4.46404C10.1304 3.4591 9.37481 2.58159 8.39805 2.13875Z" fill="#FEA600"/>
<path d="M8.39819 2.13875C7.53582 1.71871 6.4193 1.74627 5.5309 2.06249C2.40767 3.17424 0.698833 7.21508 1.74888 10.2933C2.07212 11.2407 2.61938 11.9938 3.45903 12.5336C3.45887 12.5262 3.45764 12.4895 3.45526 12.4865C3.39863 12.4137 3.29631 12.3172 3.24018 12.2472C3.10707 12.0813 2.98423 11.9128 2.85958 11.7424C2.65426 11.4616 2.46388 11.1947 2.3371 10.8667C1.9876 9.9626 2.09699 8.80923 2.30878 7.88728C2.40611 7.46345 2.58902 6.97531 2.76209 6.57743C3.43605 5.02766 4.56505 3.44791 6.07727 2.6257C6.35209 2.47632 6.67631 2.33295 6.98018 2.25233C7.29567 2.16865 7.67225 2.12514 7.99936 2.11434C8.07318 2.11106 8.14376 2.12071 8.21628 2.12853C8.27038 2.13437 8.35315 2.16287 8.39819 2.13875Z" fill="#DF7A12"/>
<path d="M13.6101 7.48009C13.6239 7.43963 13.6265 7.35326 13.6053 7.31382C13.5381 7.27026 13.4079 7.28284 13.3185 7.26439C13.0946 7.2182 12.8779 7.15705 12.6575 7.09766C12.6491 7.12646 12.6419 7.15744 12.6345 7.18668C12.6061 7.32738 12.5937 7.47052 12.5654 7.61118C12.5165 7.85367 12.4512 8.09608 12.411 8.3398C12.407 8.36368 12.3931 8.42506 12.408 8.44345C12.4281 8.46831 12.4651 8.4807 12.4945 8.49039C12.5952 8.52337 12.7032 8.54315 12.8061 8.56966C12.9276 8.601 13.227 8.69414 13.3326 8.69816C13.3537 8.69898 13.3691 8.69907 13.3847 8.68331C13.4698 8.59723 13.5948 7.65755 13.6101 7.48009Z" fill="#FEA600"/>
<path d="M13.6101 7.48009C13.6239 7.43963 13.6265 7.35326 13.6053 7.31382C13.5381 7.27026 13.4079 7.28284 13.3185 7.26439C13.0946 7.2182 12.8779 7.15705 12.6575 7.09766C12.6491 7.12646 12.6419 7.15744 12.6345 7.18668C12.8938 7.28952 13.1458 7.39147 13.4206 7.44411C13.4628 7.4522 13.5962 7.45926 13.6101 7.48009Z" fill="#DF7A12"/>
<path d="M13.4895 7.58594C13.4704 7.58586 13.4521 7.58709 13.4331 7.58824C13.3549 7.63715 13.312 8.13222 13.2338 8.23874C13.1445 8.36035 13.0368 8.33179 12.8988 8.35206C12.836 8.36125 12.8067 8.36577 12.7458 8.38087L12.8392 8.42994C12.9689 8.49362 13.1961 8.5289 13.2975 8.40696C13.461 8.21034 13.4929 7.82704 13.4895 7.58594Z" fill="#FEFE74"/>
<path d="M13.3325 8.90415C13.0492 8.83095 12.7929 8.73732 12.5348 8.59699C12.4931 8.57435 12.4325 8.52888 12.3847 8.53135C12.3484 8.55285 12.3387 8.60619 12.3272 8.64623C12.2559 8.88823 12.1759 9.12752 12.0874 9.36377C12.0425 9.48432 11.9866 9.60454 11.9483 9.72697C11.9416 9.74855 11.921 9.81658 11.9322 9.83521C11.9494 9.86352 11.9997 9.8801 12.0297 9.8906C12.1726 9.94074 12.3237 9.96298 12.469 10.0039C12.5753 10.034 12.7107 10.0938 12.8158 10.1089C12.8336 10.1115 12.8518 10.1124 12.8661 10.1005C12.9596 10.023 13.2325 9.22205 13.2921 9.05383C13.3088 9.00664 13.3204 8.95306 13.3325 8.90415Z" fill="#FEA600"/>
<path d="M13.3325 8.90415C13.0492 8.83095 12.7929 8.73732 12.5348 8.59699C12.4931 8.57435 12.4325 8.52888 12.3847 8.53135C12.3484 8.55285 12.3387 8.60619 12.3272 8.64623C12.5361 8.75332 12.7535 8.8856 12.9693 8.97324C13.0545 9.00787 13.199 9.02896 13.2921 9.05383C13.3088 9.00664 13.3204 8.95306 13.3325 8.90415Z" fill="#DF7A12"/>
<path d="M13.0667 9.13281C13.0603 9.13363 13.0367 9.13692 13.0296 9.14315C12.9273 9.23219 12.7947 9.80095 12.6656 9.80448C12.4834 9.80949 12.2913 9.77043 12.1066 9.78118C12.155 9.82762 12.1749 9.83977 12.2317 9.8707L12.2531 9.87834C12.3825 9.92454 12.6142 10.0308 12.7467 9.98649C12.8991 9.93553 13.1225 9.2399 13.0667 9.13281Z" fill="#FEFE74"/>
<path d="M10.486 12.1758C10.4438 12.2198 10.4007 12.2698 10.3611 12.3166C10.1137 12.6091 9.85072 12.8749 9.57308 13.1386C9.62886 13.219 9.69 13.2299 9.78163 13.2595C9.97037 13.3201 10.1563 13.3764 10.3398 13.4518C10.3913 13.476 10.4049 13.4805 10.4601 13.4945C10.5233 13.4564 10.623 13.358 10.6814 13.305C10.9253 13.0837 11.1757 12.8429 11.3706 12.5762C11.2507 12.5128 11.1768 12.5122 11.0552 12.4646C10.8507 12.3845 10.6749 12.2847 10.486 12.1758Z" fill="#FEA600"/>
<path d="M10.486 12.1758C10.4438 12.2198 10.4007 12.2698 10.3611 12.3166C10.1137 12.6091 9.85072 12.8749 9.57308 13.1386C9.62886 13.219 9.69 13.2299 9.78163 13.2595C9.83657 13.1634 9.99286 13.0238 10.067 12.9329C10.2199 12.7453 10.3924 12.5532 10.5433 12.3657C10.6829 12.4284 10.8054 12.5596 10.9539 12.6288C11.004 12.6521 11.1368 12.6974 11.153 12.7319C11.1003 12.8213 10.4509 13.369 10.3398 13.4518C10.3913 13.476 10.4049 13.4805 10.4601 13.4945C10.5233 13.4564 10.623 13.358 10.6814 13.305C10.9253 13.0837 11.1757 12.8429 11.3706 12.5762C11.2507 12.5128 11.1768 12.5122 11.0552 12.4646C10.8507 12.3845 10.6749 12.2847 10.486 12.1758Z" fill="#DF7A12"/>
<path d="M10.9663 12.7031C10.8416 12.7398 10.5455 13.0442 10.4225 13.1314C10.3672 13.1706 10.3221 13.2038 10.256 13.2323C10.2159 13.2496 10.1604 13.2539 10.131 13.2766L10.1297 13.2912L10.1581 13.3191C10.187 13.3379 10.2271 13.3626 10.2694 13.3502C10.5047 13.2805 10.7838 12.966 10.9563 12.7899C10.9807 12.765 10.9709 12.7337 10.9663 12.7031Z" fill="#FEFE74"/>
<path d="M13.6171 6.11201C13.6116 6.04851 13.6129 5.91191 13.5381 5.89664C13.2834 5.84464 13.0293 5.79953 12.7832 5.71101C12.7508 5.69936 12.7401 5.70034 12.7112 5.71581C12.6945 5.74078 12.6962 5.75143 12.694 5.78124C12.6912 6.14393 12.6971 6.50362 12.6656 6.86542C12.6623 6.90338 12.6689 6.95349 12.6765 6.99038C12.7342 7.0408 13.0084 7.05218 13.0949 7.05983L13.6336 7.10998C13.6643 6.77771 13.6587 6.44309 13.6171 6.11201Z" fill="#FEA600"/>
<path d="M13.6172 6.11201C13.6118 6.04851 13.613 5.91191 13.5382 5.89664C13.2835 5.84464 13.0294 5.79953 12.7834 5.71101C12.751 5.69936 12.7403 5.70034 12.7114 5.71581C12.6946 5.74078 12.6963 5.75143 12.6941 5.78124C12.748 5.7984 12.8328 5.8586 12.8887 5.8866C13.08 5.98245 13.4052 6.1116 13.6172 6.11201Z" fill="#DF7A12"/>
<path d="M13.5166 6.21484L13.4706 6.21777C13.4134 6.26434 13.4427 6.66958 13.3944 6.76002C13.3551 6.83359 13.232 6.83837 13.1638 6.84684C13.0326 6.86313 12.9424 6.87781 12.825 6.93106C12.8626 6.9423 12.9098 6.9531 12.9485 6.96298C13.0523 6.98593 13.3541 7.01326 13.4429 6.9687C13.656 6.8618 13.6001 6.37735 13.5166 6.21484Z" fill="#FEFE74"/>
<path d="M12.718 10.4416C12.817 10.2768 12.7698 10.2786 12.6186 10.2524C12.3491 10.2058 12.0958 10.0808 11.8583 9.94922L11.8046 10.0538C11.7406 10.1843 11.6726 10.331 11.6053 10.4583C11.4963 10.6554 11.3978 10.8393 11.2844 11.0349C11.3015 11.0524 11.3211 11.0736 11.3394 11.0891C11.5217 11.1642 11.7454 11.2008 11.9325 11.2702C11.9861 11.2901 12.1538 11.3519 12.2039 11.3499C12.3074 11.2775 12.6384 10.5998 12.718 10.4416Z" fill="#FEA600"/>
<path d="M12.718 10.4416C12.817 10.2768 12.7698 10.2786 12.6186 10.2524C12.3491 10.2058 12.0958 10.0808 11.8583 9.94922L11.8046 10.0538C11.9086 10.0753 11.9995 10.1466 12.0934 10.2009C12.163 10.2416 12.2351 10.2777 12.3094 10.3091C12.3701 10.3341 12.7011 10.4294 12.718 10.4416Z" fill="#DF7A12"/>
<path d="M11.6051 10.457C11.4962 10.6541 11.3977 10.838 11.2842 11.0336C11.3014 11.0512 11.321 11.0723 11.3393 11.0878C11.3831 10.9833 11.6283 10.5236 11.6051 10.457Z" fill="#DF7A12"/>
<path d="M12.4971 10.5078C12.436 10.5327 12.2934 10.8523 12.2231 10.9302C12.0983 11.0686 11.9826 10.996 11.8159 10.9857C11.7374 10.9807 11.6859 10.9826 11.6085 10.9869C11.6535 11.0159 11.698 11.0413 11.7445 11.068C11.8942 11.144 12.1152 11.2308 12.2553 11.1078C12.3905 10.9893 12.5409 10.7121 12.5566 10.5382C12.5427 10.5187 12.5211 10.5157 12.4971 10.5078Z" fill="#FEFE74"/>
<path d="M12.1228 11.517C11.8494 11.4495 11.5934 11.3763 11.3532 11.2238C11.3164 11.2004 11.2712 11.1705 11.2268 11.1719C11.2005 11.1896 11.1794 11.2119 11.1614 11.2381C10.9929 11.4825 10.832 11.7355 10.6446 11.966C10.605 12.0147 10.5507 12.0641 10.5788 12.1299C10.6048 12.1589 10.6391 12.1661 10.6774 12.1777C10.8195 12.2093 11.4339 12.427 11.495 12.4025C11.5675 12.3735 11.9535 11.7901 12.0203 11.6838C12.0584 11.6279 12.0887 11.5756 12.1228 11.517Z" fill="#FEA600"/>
<path d="M12.1228 11.517C11.8494 11.4495 11.5934 11.3763 11.3532 11.2238C11.3164 11.2004 11.2712 11.1705 11.2268 11.1719C11.2005 11.1896 11.1794 11.2119 11.1614 11.2381C10.9929 11.4825 10.832 11.7355 10.6446 11.966C10.605 12.0147 10.5507 12.0641 10.5788 12.1299C10.6048 12.1589 10.6391 12.1661 10.6774 12.1777C10.7693 12.0446 10.858 11.9154 10.9442 11.7801C11.0022 11.6891 11.187 11.3639 11.2459 11.3026C11.4028 11.3844 11.4972 11.4987 11.6599 11.5782C11.7909 11.6422 11.8889 11.6435 12.0088 11.6802L12.0203 11.6838C12.0584 11.6279 12.0887 11.5756 12.1228 11.517Z" fill="#DF7A12"/>
<path d="M11.7865 11.7344C11.6759 11.7541 11.5316 12.0615 11.411 12.1322C11.3198 12.1857 11.0525 12.1114 11.0393 12.1922C11.0558 12.2213 11.0829 12.2327 11.1126 12.2506C11.4474 12.4152 11.5705 12.2354 11.7243 11.9601C11.7654 11.8865 11.8567 11.7974 11.7865 11.7344Z" fill="#FEFE74"/>
<path d="M9.49371 13.2227C9.45816 13.2378 9.23861 13.4218 9.19184 13.4607C8.91892 13.6878 8.63212 13.8844 8.34176 14.0883C8.52742 14.1585 8.7271 14.2121 8.91487 14.2789C8.99438 14.307 9.08429 14.3361 9.16563 14.3559C9.17597 14.3567 9.21521 14.3591 9.22176 14.3571C9.45022 14.2869 10.1841 13.7833 10.3125 13.6144C10.2215 13.571 10.1141 13.5506 10.0178 13.5153C9.81252 13.4403 9.66826 13.3464 9.49371 13.2227Z" fill="#DF7A12"/>
<path d="M9.6514 13.3945C9.53611 13.5246 9.26041 13.7453 9.19291 13.9246C9.18586 13.9433 9.19696 13.9589 9.20591 13.9726C9.26693 14.0036 9.36523 13.9651 9.4311 13.9468C9.57561 13.8969 9.87273 13.7748 9.97363 13.6679C9.89317 13.5904 9.73983 13.4573 9.6514 13.3945Z" fill="#FEA600"/>
<path d="M8.25844 14.168C8.17211 14.1669 8.08814 14.22 8.01342 14.2628C7.79403 14.3885 7.5837 14.4867 7.35191 14.5841C7.22249 14.6385 7.01089 14.7101 6.89839 14.7743C7.06292 14.8581 7.44377 14.9577 7.63844 15.0154C7.66224 15.0207 7.68653 15.0264 7.71087 15.0285C7.82932 15.0384 8.81341 14.6301 8.93284 14.5254C8.94981 14.5105 8.96029 14.4943 8.96069 14.4716C8.88343 14.427 8.66369 14.3667 8.56612 14.319C8.47301 14.2734 8.34934 14.2028 8.25844 14.168Z" fill="#DF7A12"/>
<path d="M13.5424 5.61218C13.5278 5.41132 13.444 5.12741 13.378 4.93766C13.3489 4.85387 13.12 4.80639 13.0349 4.78055L12.582 4.64062C12.5908 4.70227 12.5926 4.75845 12.6042 4.82269C12.6128 4.92003 12.6678 5.53223 12.7103 5.57326C12.7504 5.61213 12.8394 5.61595 12.8929 5.62014C13.0142 5.64711 13.1384 5.66593 13.2614 5.68412C13.333 5.69617 13.4833 5.74492 13.5395 5.69591C13.5542 5.66849 13.5465 5.64434 13.5424 5.61218Z" fill="#FEA600"/>
<path d="M13.5425 5.61218C13.5279 5.41132 13.4441 5.12741 13.3781 4.93766C13.349 4.85387 13.1201 4.80639 13.035 4.78055L12.5821 4.64062C12.5909 4.70227 12.5927 4.75845 12.6043 4.82269C12.6047 4.78538 12.598 4.7826 12.6161 4.75999C12.6284 4.76101 12.7781 4.83581 12.802 4.85155C12.9277 4.93445 13.2458 5.0029 13.3363 5.09522C13.4086 5.16897 13.4671 5.54862 13.5425 5.61218Z" fill="#DF7A12"/>
<path d="M13.2615 5.6854C13.394 5.59607 13.4112 5.50989 13.3881 5.35042C13.381 5.30204 13.3289 5.14389 13.2885 5.11592C13.2699 5.11118 13.2251 5.1103 13.2195 5.1355C13.1985 5.22986 13.2503 5.39334 13.2064 5.47815C13.1394 5.51982 12.827 5.43141 12.7677 5.51469C12.7828 5.57306 12.844 5.58107 12.893 5.62142C13.0143 5.6484 13.1385 5.66721 13.2615 5.6854Z" fill="#FEFE74"/>
<path d="M13.1717 4.65667C13.2062 4.66499 13.2238 4.67255 13.2578 4.66635C13.2677 4.65871 13.2737 4.65829 13.275 4.64471C13.2837 4.55199 12.9692 3.80674 12.8998 3.72293C12.8754 3.69348 12.8364 3.67128 12.8026 3.65408C12.7378 3.6211 12.3364 3.44738 12.2941 3.44531C12.2292 3.47664 12.2991 3.61456 12.3186 3.66748C12.3714 3.82375 12.418 3.98208 12.4582 4.14208C12.4847 4.24744 12.5036 4.35725 12.5401 4.45916C12.5681 4.53742 12.6385 4.55262 12.7128 4.55442C12.7587 4.56228 12.8111 4.56992 12.8562 4.57911C12.9599 4.60284 13.0704 4.62576 13.1717 4.65667Z" fill="#FEA600"/>
<path d="M13.1717 4.65667C13.2062 4.66499 13.2238 4.67255 13.2578 4.66635C13.2677 4.65871 13.2737 4.65829 13.275 4.64471C13.2837 4.55199 12.9692 3.80674 12.8998 3.72293C12.8754 3.69348 12.8364 3.67128 12.8026 3.65408C12.7378 3.6211 12.3364 3.44738 12.2941 3.44531C12.2292 3.47664 12.2991 3.61456 12.3186 3.66748C12.3376 3.65004 12.3606 3.62528 12.3874 3.63286C12.4448 3.64905 12.7364 3.74001 12.7577 3.77848C12.8462 3.93858 13.1327 4.51299 13.1717 4.65667Z" fill="#DF7A12"/>
<path d="M12.8562 4.57837C13.046 4.53147 13.0183 4.41803 12.9456 4.27337C12.8904 4.16341 12.8126 3.90366 12.721 3.83203L12.7022 3.84042C12.6837 4.02192 12.8034 4.24243 12.8431 4.40773C12.7767 4.43945 12.6901 4.44699 12.6633 4.50212C12.6734 4.53327 12.6799 4.52926 12.7127 4.55368C12.7587 4.56154 12.8111 4.56918 12.8562 4.57837Z" fill="#FEFE74"/>
<path d="M6.72166 14.8245C6.66783 14.8214 6.59348 14.845 6.53998 14.8599C6.24956 14.9405 5.9548 14.9989 5.65437 15.026C5.62943 15.0283 5.60686 15.0353 5.59176 15.0562C5.60194 15.135 6.13246 15.3339 6.22937 15.3397C6.61974 15.3029 7.00641 15.2341 7.3855 15.1341C7.26171 15.0272 7.02569 14.9844 6.88233 14.8938C6.84508 14.8703 6.76203 14.8346 6.72166 14.8245Z" fill="#DF7A12"/>
<path d="M12.541 3.38255C12.5767 3.39269 12.6803 3.4066 12.715 3.39611C12.7287 3.33612 12.3292 2.6457 12.239 2.58086C12.2018 2.55409 11.8544 2.44999 11.8086 2.47713L11.8036 2.50358C11.8528 2.62375 11.9436 2.77327 12.0023 2.89724C12.0643 3.02794 12.1273 3.17951 12.1967 3.30571C12.2108 3.33138 12.2695 3.33821 12.2975 3.34106L12.3099 3.34222C12.3916 3.34926 12.4609 3.36644 12.541 3.38255Z" fill="#DF7A12"/>
<path d="M12.541 3.38366L12.5576 3.37557C12.5561 3.32751 12.2873 2.84729 12.2418 2.8125L12.2336 2.81783C12.2235 2.86879 12.2927 3.28613 12.3099 3.34333C12.3917 3.35038 12.461 3.36755 12.541 3.38366Z" fill="#FEA600"/>
<path d="M11.1067 1.50439C11.0929 1.5037 11.1003 1.50222 11.0857 1.51295C11.0858 1.5204 11.0853 1.53111 11.089 1.53591C11.1927 1.66443 11.3008 1.79888 11.4051 1.92654C11.5005 2.04322 11.6262 2.28021 11.7456 2.34898C11.8366 2.35363 11.9558 2.35043 12.0489 2.35047C12.0644 2.35001 12.0564 2.352 12.0723 2.34203C12.0715 2.28243 11.8927 2.06274 11.8483 2.01356C11.7895 1.94829 11.6321 1.71682 11.566 1.67698C11.461 1.61371 11.2264 1.54528 11.1067 1.50439Z" fill="#DF7A12"/>
<path d="M3.90376 14.8984L3.89137 14.9091C3.90573 15.0731 5.4822 15.3261 5.70139 15.3114C5.70598 15.306 5.72289 15.2826 5.71353 15.2757C5.65092 15.229 5.47039 15.0635 5.39579 15.0613C4.91418 15.0471 4.36864 15.0637 3.90376 14.8984Z" fill="#DF7A12"/>
<path d="M10.6554 1.06857L10.6392 1.06641L10.6306 1.07453C10.6454 1.10525 10.6637 1.12784 10.685 1.15418C10.8378 1.34317 10.988 1.37565 11.2161 1.4018L11.2378 1.40229L11.2456 1.39252L11.2407 1.3708C11.153 1.26017 10.7909 1.11901 10.6554 1.06857Z" fill="#DF7A12"/>
</svg>
