<svg width="227" height="201" viewBox="0 0 227 201" fill="none" xmlns="http://www.w3.org/2000/svg">
<path d="M160.455 0.443214C165.655 -0.12398 171.55 -0.134785 176.755 0.342092C189.01 1.45842 198.798 7.93596 206.512 17.3326C212.856 25.0602 218.669 37.6649 220.006 47.7118C220.527 51.6244 220.146 55.555 221.134 59.417C222.769 65.8078 226.336 71.1799 226.473 78.008C226.575 83.0477 225.557 88.2463 223.993 93.0151C222.801 96.6495 221.419 99.9479 220.988 103.777C220.557 107.603 220.608 111.494 220.351 115.334C219.368 129.995 218.928 144.796 217.54 159.417C217.072 164.348 216.751 169.796 212.562 173.08C208.734 176.082 187.286 178.289 181.179 179.344C153.3 184.156 125.711 190.096 97.9498 195.486C92.9971 196.447 87.9164 196.627 82.9785 197.599C79.6178 198.26 76.5523 200.016 73.1963 200.648C70.4896 201.158 67.8855 200.984 65.1744 200.648C62.9259 200.327 60.255 199.29 58.2514 198.188C50.7986 194.164 43.7571 189.38 36.3596 185.244C29.8019 181.555 23.0978 178.083 16.591 174.301C14.0288 172.812 5.83244 168.412 5.22866 165.482C3.89717 159.023 4.53057 151.414 4.56309 144.742L4.58983 114.424C4.54286 107.932 4.84529 98.6328 3.28761 92.2022C2.74634 89.9696 0.0146933 87.6719 0.000962782 84.6192C-0.017465 80.3959 0.230412 76.4147 0.592102 72.2132C1.57997 54.8758 5.59433 40.6092 16.9361 26.9135C22.7036 19.9518 31.7917 13.1419 40.4152 10.1108C44.16 8.79217 54.2454 8.34422 58.509 8.05882L79.741 6.56677C84.7147 6.21273 90.0248 5.93453 94.9457 5.28786C116.686 2.43382 138.675 2.36156 160.455 0.443214Z" fill="#010202"/>
<path d="M209.051 106.069C208.832 99.3458 211.436 100.029 217.319 100.061C217.435 101.951 217.724 105.235 217.648 107.008C217.827 125.91 215.206 145.939 213.568 164.837C213.163 169.512 210.743 171.347 206.399 172.07C197.279 173.908 188.042 174.718 178.906 176.343C154.25 180.736 129.847 186.455 105.3 191.296C100.393 192.272 95.4628 193.121 90.5129 193.84C83.4735 194.837 81.518 194.425 75.1131 197.64C73.7502 197.572 73.5872 197.568 72.2796 197.239C71.9613 195.371 72.3157 186.043 72.3472 183.67C72.4314 176.152 72.6557 168.634 73.0207 161.123C73.5948 150.187 74.4237 139.4 73.485 128.443C75.0842 128.443 77.1774 128.247 78.5327 128.898C79.5846 130.115 79.263 129.66 79.3775 131.615C79.2912 137.052 78.3282 142.601 77.8733 148.027C77.3562 154.197 75.791 179.006 78.329 183.189C79.0426 184.367 80.2971 185.126 81.6318 185.382C84.9485 186.029 95.5191 183.02 99.2748 182.221C127.601 176.206 155.574 169.169 183.725 162.442C189.324 161.105 195.153 160.401 200.674 158.843C202.428 158.345 204.194 157.738 205.715 156.716C207.223 152.839 208.872 113.406 209.051 106.069Z" fill="#F5CC59"/>
<path d="M209.051 106.069C208.832 99.3458 211.436 100.029 217.319 100.061C217.435 101.951 217.724 105.235 217.648 107.008C217.427 105.925 217.443 104.87 216.792 104.292C214.645 104.364 211.034 105.256 209.051 106.069Z" fill="#BB9541"/>
<path d="M209.786 38.6809C215.182 37.8752 215.18 40.7835 216.294 45.2271C216.64 46.6071 216.939 48.0486 217.254 49.4358C207.539 52.7379 191.21 53.3448 180.74 55.2704C175.26 56.2819 167.388 55.787 161.512 56.5782C150.944 58.0016 140.275 59.2985 129.688 60.5485C115.005 62.2104 100.306 63.7313 85.5934 65.1114C83.5205 65.3715 80.9103 66.0037 78.8225 66.4517C78.8138 61.3325 78.6993 55.7364 79.0014 50.6642C88.3883 48.7458 107.369 47.1743 117.429 46.1519C148.181 43.2581 178.969 40.7654 209.786 38.6809Z" fill="#B26A01"/>
<path d="M203.514 23.1493C204.419 23.0879 204.859 23.1168 205.751 23.1493C209.069 24.934 211.78 32.6471 212.896 36.1189C207.163 37.3942 199.946 37.5784 193.942 37.9722L166.442 39.8508C139.687 42.0618 112.959 44.5834 86.2623 47.4158C78.9685 48.5177 77.9134 46.5885 77.783 39.5329C77.7447 37.4448 77.4665 34.793 77.3075 32.6615C85.2845 30.7396 94.2849 30.223 102.442 29.6413L124.586 28.0517L203.514 23.1493Z" fill="#B26A01"/>
<path d="M7.07463 95.2031C10.3642 96.5362 13.5811 98.0427 16.7123 99.7118C17.1174 103.299 17.0498 104.654 16.8236 108.256C16.8504 115.456 15.8455 122.41 15.275 129.567C14.6025 137.537 14.4757 145.543 14.8952 153.527C15.0119 155.575 14.9335 158.205 15.6919 160.116C16.0222 160.947 16.8529 161.803 17.4751 162.425C21.5997 166.54 51.6466 181.352 57.6139 181.149C58.2036 181.131 58.6257 180.987 59.1601 180.756C63.1108 175.882 62.9855 140.846 63.7699 132.284C63.7399 127.652 63.7363 123.025 63.7583 118.393C68.2233 120.553 69.8012 120.712 74.4905 121.854C76.1139 121.887 78.0239 121.558 79.2373 122.19C80.283 123.949 80.3187 129.925 79.3775 131.616C79.2629 129.661 79.5845 130.116 78.5327 128.899C77.1773 128.249 75.0842 128.444 73.4849 128.444C74.4237 139.401 73.5948 150.188 73.0206 161.124C72.6557 168.635 72.4313 176.153 72.3471 183.671C72.3157 186.045 71.9612 195.373 72.2795 197.24C73.5872 197.569 73.7501 197.573 75.1131 197.641C65.3905 199.094 60.5234 195.972 52.7682 191.283C47.6821 188.194 42.565 185.152 37.4175 182.168C31.891 179.018 26.333 175.922 20.7444 172.883C14.3839 169.401 7.99999 167.562 7.33442 159.368C6.87734 157.11 7.07354 141.605 7.07643 138.422C6.97598 124.018 6.97563 109.611 7.07463 95.2031Z" fill="#BB9541"/>
<path d="M7.07463 95.2031C10.3642 96.5362 13.5811 98.0427 16.7123 99.7118C17.1174 103.299 17.0498 104.654 16.8236 108.256C14.4125 107.176 10.1195 104.997 7.67371 105.077C7.02079 106.189 7.78211 153.7 7.33442 159.368C6.87734 157.11 7.07354 141.605 7.07643 138.422C6.97598 124.018 6.97563 109.611 7.07463 95.2031Z" fill="#926F1F"/>
<path d="M63.7584 118.391C68.2233 120.551 69.8013 120.71 74.4906 121.852L73.5284 122.104C72.6955 123.55 73.3166 126.787 73.5287 128.56L64.1284 127.018C64.0879 128.795 64.1306 130.547 63.77 132.281C63.74 127.65 63.7364 123.022 63.7584 118.391Z" fill="#926F1F"/>
<path d="M77.4462 81.072C80.3993 80.2121 85.7047 79.6883 88.944 79.2042C101.106 77.3761 113.42 76.7439 125.661 75.6493C144.746 73.9441 163.359 71.5127 182.275 68.5612C195.372 66.52 201.913 67.4918 214.258 62.0547C217.541 62.994 219.49 63.6804 221.398 66.7946C222.588 68.7382 221.653 70.4759 219.601 70.9311C212.513 72.5098 205.248 73.2613 198.061 74.3162L155.04 80.7288C141.352 82.9361 127.686 85.2844 114.045 87.7735C105.607 89.2981 88.2745 92.5025 79.7294 92.3869C78.2476 92.2207 75.6851 92.3327 74.1151 92.3508C74.479 89.3342 74.776 84.5727 75.7436 81.7114C75.8986 81.2562 76.8092 81.2165 77.4462 81.072Z" fill="#F5CC59"/>
<path d="M161.487 2.93359C170.062 2.97333 181.371 2.64096 188.932 6.633C190.85 7.64455 195.652 10.5275 196.28 12.5723C192.819 13.9126 170.611 14.3244 165.452 14.6749C142.896 16.2175 120.106 16.8859 97.4981 17.5253C90.5722 17.5361 77.155 18.8259 70.7024 17.2399C69.6173 16.9725 63.4093 11.6438 61.8307 10.448C68.3892 9.32448 76.7546 8.73197 83.4941 8.16478C97.8107 7.01594 112.143 6.07667 126.488 5.35051C138.245 4.70745 149.753 3.2479 161.487 2.93359Z" fill="#B26A01"/>
<path d="M214.686 52.3853C215.613 52.2949 216.013 52.1324 216.819 52.5515C217.554 53.787 218.613 57.7068 217.137 58.4113C208.341 62.6128 196.421 62.9958 186.84 64.4192C172.995 66.4712 159.63 68.4184 145.792 70.0875C124.269 72.0239 103.183 74.5095 81.7622 77.2515C79.9765 77.4502 79.4642 77.7211 78.2057 76.9119C77.1434 74.3975 78.4163 71.1496 79.0978 68.2811C92.4828 66.4278 105.641 65.1092 119.048 63.6352C135.253 61.641 151.472 59.1663 167.79 58.2884C183.491 57.443 199.105 54.5384 214.686 52.3853Z" fill="#B26A01"/>
<path d="M137.097 110.474C128.042 111.558 119.473 112.732 109.881 113.852C98.2692 115.008 85.9989 118.296 74.3894 118.119C71.5779 118.075 72.8357 103.596 74.036 102.19C75.8744 100.033 87.2133 99.17 90.1281 98.7437C101.474 97.0819 112.836 95.532 124.212 94.0906C131.972 93.0718 141.334 92.165 148.767 90.1094C144.491 94.441 143.307 95.5899 140.909 101.186C140.486 103.975 140.568 108.856 139.114 110.369C138.454 110.406 137.754 110.456 137.097 110.474Z" fill="#F5CC59"/>
<path d="M140.909 101.184C140.486 103.973 140.568 108.853 139.114 110.367C138.454 110.403 137.754 110.454 137.097 110.472C137.161 106.819 137.589 103.283 140.909 101.184Z" fill="#BB9541"/>
<path d="M176.256 145.019C180.088 143.982 199.65 141.016 202.927 141.764C204.243 143.104 204.156 145.904 203.375 147.494C201.079 149.3 184.33 151.959 180.153 152.88C159.307 157.472 138.2 160.998 117.207 164.817C109.894 166.171 102.598 167.62 95.3214 169.163C90.7195 170.124 85.4326 171.45 80.822 171.872C80.7993 168.198 80.697 164.224 80.8271 160.579C83.8716 159.752 87.2017 158.816 90.3033 158.325C108.822 155.38 127.337 152.151 145.966 149.983C149.035 149.629 152.17 148.697 155.44 148.411C159.021 148.097 162.891 148.238 166.36 147.689C169.638 147.172 172.802 145.276 176.256 145.019Z" fill="#B26A01"/>
<path d="M145.966 149.983C149.035 149.629 152.17 148.697 155.44 148.412C159.021 148.098 162.891 148.238 166.36 147.689C169.638 147.173 172.802 145.276 176.256 145.02C168.355 154.658 156.354 154.47 146.272 150.07C146.17 150.041 146.068 150.012 145.966 149.983Z" fill="#885205"/>
<path d="M3.61523 65.0965C4.27538 61.3393 5.28674 53.7273 7.48831 50.9708C9.00155 50.1399 12.2174 50.5843 13.8134 51.2093C32.476 58.5539 50.706 67.3472 68.7269 76.155C71.8564 77.6832 74.0767 80.6745 77.4461 81.0719C76.8091 81.2164 75.8986 81.2561 75.7436 81.7113C74.7759 84.5726 74.4789 89.3341 74.115 92.3507C75.685 92.3327 78.2476 92.2207 79.7294 92.3868C71.7357 93.6802 64.9673 89.7135 57.6901 86.7041C48.1095 82.7482 38.5596 78.7164 29.0415 74.6124C21.0229 71.1803 12.0006 66.7403 3.61523 65.0965Z" fill="#BB9541"/>
<path d="M2.70514 76.0127C3.8137 75.4419 5.56505 75.9152 6.97676 76.0633C20.7228 82.1435 34.1736 87.4216 48.2094 92.7612C55.8966 95.6839 63.6399 99.535 71.3763 102.385C71.248 106.97 70.5091 112.32 69.974 116.945C53.8226 109.954 37.5813 103.802 21.109 97.6058C17.4314 96.2222 14.2882 94.9469 10.8661 93.1514C1.94455 88.4765 2.08113 84.6904 2.70514 76.0127Z" fill="#BB9541"/>
<path d="M47.0201 12.6282C49.6903 12.3608 51.7669 12.3536 54.448 12.7835C60.2932 13.6578 65.518 16.9092 68.8873 21.7647C75.9275 31.743 75.1405 48.6287 75.2037 60.5181C75.2265 64.7594 75.3938 71.1467 74.7152 75.1279C71.2114 74.0116 70.3507 73.3396 67.5775 71.0672C67.9078 67.9964 67.9121 63.943 67.9569 60.8108C68.1441 47.6317 67.2765 36.7971 59.2189 26.0566C54.2073 20.7676 46.7405 18.2676 39.8366 21.1216C28.381 25.8615 22.9044 38.2422 18.2656 48.6504C15.3671 47.787 12.002 46.9922 9.04382 46.2155C14.4706 29.0298 29.0383 15.4027 47.0201 12.6282Z" fill="#BB9541"/>
<path d="M191.074 15.2476C195.698 15.0019 200.216 14.2866 203.652 18.0185C204.399 18.8313 204.301 19.1529 204.179 20.0994C202.371 21.9166 192.672 21.8877 189.646 22.0647L167.022 23.4411C140.184 25.0054 112.792 26.2121 86.0657 29.2359C83.2892 29.5683 79.7442 29.59 76.8962 29.6839L72.5249 20.0524C112.096 19.6839 151.511 16.8299 191.074 15.2476Z" fill="#B26A01"/>
<path d="M175.98 116.343C178.321 116.097 180.673 116.155 183.024 116.166C183.812 121.61 183.377 127.557 181.087 132.611C178.756 137.755 174.502 141.502 169.212 143.42C163.294 145.581 156.754 145.266 151.073 142.542C149.917 141.831 148.858 141.036 147.883 140.086C143.039 135.378 140.778 128.995 140.719 122.358C150.256 119.024 165.609 117.669 175.98 116.343Z" fill="#F5CC59"/>
<path d="M161.973 121.995C162.681 121.948 163.5 121.898 164.187 122.103C165.511 122.504 166.702 123.556 167.295 124.795C168.456 127.223 167.928 129.596 167.052 131.991C167.398 133.278 168.05 134.997 168.003 136.312C167.965 137.407 167.541 137.649 166.733 138.299C165.572 138.285 164.24 138.357 163.378 137.425C161.049 134.91 159.002 129.408 159.404 126.03C159.621 124.202 160.584 123.097 161.973 121.995Z" fill="#010202"/>
<path d="M200.551 151.388C200.885 151.37 201.487 151.319 201.804 151.37C202.747 151.521 202.908 151.922 203.378 152.652C203.364 153.165 203.451 153.479 203.142 153.92C202.597 154.7 201.991 154.899 201.105 155.087C190.32 157.396 179.577 159.545 168.879 162.262C156.052 165.52 143.37 169.343 130.477 172.334C115.527 175.806 99.6169 179.563 84.504 181.98C83.1812 181.958 82.2493 182.124 81.1354 181.373C80.6703 180.459 80.5569 179.978 80.6216 178.96C80.7079 177.572 80.782 176.182 80.8441 174.794C90.0378 170.961 100.465 169.722 110.216 167.894L155.091 159.747C170.277 156.995 185.164 153.068 200.551 151.388Z" fill="#B26A01"/>
<path d="M216.99 79.5183C218.448 78.1166 221.024 78.113 223.031 77.9648C223.056 79.558 223.033 81.4402 223.137 83.0045C223.083 86.2488 222.088 92.4084 219.751 94.8C217.182 97.4265 184.465 101.484 179.408 101.364C176.385 95.4503 174.208 92.0327 167.337 90.4395C165.93 90.1143 163.91 89.3412 163.938 87.6577C166.968 85.5623 208.145 82.4301 216.99 79.5183Z" fill="#F5CC59"/>
<path d="M135.381 139.151C137.26 138.909 139.212 138.628 141.088 138.418C144.437 142.179 147.169 144.993 151.739 147.316C149.01 147.71 145.661 148.284 142.958 148.425C121.914 151.261 101.369 155.044 80.4184 158.27C80.1445 153.179 80.405 151.601 81.3434 146.496C87.4936 144.206 102.014 142.8 108.77 142.063L135.381 139.151Z" fill="#B26A01"/>
<path d="M135.381 139.151C137.26 138.909 139.212 138.628 141.088 138.418C144.437 142.179 147.169 144.993 151.739 147.316C149.01 147.71 145.661 148.284 142.958 148.425C141.792 147.193 140.899 146.109 139.835 144.812C138.433 143.104 137.206 139.968 135.381 139.151Z" fill="#885205"/>
<path d="M134.067 127.555C134.875 127.458 135.431 127.555 136.217 127.685C138.5 129.163 139.254 133.834 140.006 136.312C122.733 139.188 105.057 140.579 87.6844 142.859C86.647 143.025 84.9387 143.491 83.9205 143.271C83.1743 143.112 82.5987 142.757 82.1919 142.1C80.6483 139.607 82.2081 134.661 82.9073 131.97L134.067 127.555Z" fill="#B26A01"/>
<path d="M83.7777 121.307C89.392 119.573 137.381 113.03 140.122 114.392C141.935 118.102 138.219 118.601 136.357 121.274C136.446 122.575 136.682 123.673 136.07 124.79C133.853 126.336 95.1895 129.269 89.9485 129.23C87.2689 129.706 85.6631 129.562 82.9647 129.432C82.9481 126.704 83.2205 123.98 83.7777 121.307Z" fill="#885205"/>
<path d="M89.9485 129.229C88.6618 129.178 85.6747 129.203 84.7299 128.611C87.2021 127.747 93.1192 127.22 96.0499 126.696C101.513 125.713 106.972 124.659 112.476 123.958C119.979 122.997 129.094 122.881 136.358 121.273C136.446 122.574 136.682 123.672 136.07 124.789C133.853 126.335 95.1896 129.268 89.9485 129.229Z" fill="#B26A01"/>
<path d="M18.1023 134.965C22.4119 135.915 55.2769 150.673 58.479 153.581C59.852 156.453 59.288 161.182 58.8262 164.282C49.0743 160.387 39.3831 156.341 29.7559 152.15C25.7553 150.398 21.1014 148.841 17.5025 146.388C17.3392 142.508 17.4895 138.805 18.1023 134.965Z" fill="#885205"/>
<path d="M17.8884 149.477C22.6146 150.481 27.71 153.331 32.1464 155.257C40.9094 159.057 49.7868 162.721 58.3792 166.89C58.3698 170.448 58.5017 174.01 57.3744 177.435L56.307 178.122C52.0506 177.916 29.293 166.59 24.6409 163.909C22.9051 162.909 21.0977 161.706 19.681 160.279C17.1712 157.753 17.8172 152.768 17.8884 149.477Z" fill="#885205"/>
<path d="M31.3668 31.9492C33.3909 32.0576 35.6044 32.986 37.3359 34.0048C45.2241 38.6435 53.4587 42.4766 61.6735 46.4759C62.5017 46.9528 63.7559 47.6247 64.2064 48.4665C65.3461 50.6016 65.285 56.8552 64.571 59.1131C63.4708 59.478 62.8392 58.9216 61.5142 58.3833C51.6272 54.4672 35.4422 45.4535 26.4126 39.5539C27.5674 37.1298 29.7762 34.2072 31.3668 31.9492Z" fill="#885205"/>
<path d="M20.7639 101.164C28.2603 103.856 35.7395 106.598 43.2009 109.383C48.6978 111.421 55.0058 113.613 60.2191 116.135C60.4764 119.661 60.661 124.6 60.2372 128.086C47.8591 122.782 34.6678 116.243 22.555 110.192C19.0331 108.436 19.8501 104.318 20.7639 101.164Z" fill="#5E3901"/>
<path d="M20.3585 111.938C23.9216 112.628 59.4644 129.835 60.3283 131.287C61.4741 133.213 60.4201 138.086 60.1975 140.33C55.0804 139.192 23.5053 123.552 20.2454 120.048C19.2395 117.44 19.9737 114.618 20.3585 111.938Z" fill="#885205"/>
<path d="M19.259 123.141C20.2115 123.256 21.0949 123.498 21.9733 123.881C29.2707 127.075 36.3419 131.172 43.4694 134.77C48.6158 137.367 54.2052 139.604 59.0972 142.635C60.531 144.802 60.1263 148.166 59.6945 150.63C51.879 148.444 44.1993 144.228 36.7888 140.897C30.6448 138.133 23.8038 135.68 18.11 132.1C18.1812 129.037 18.7091 126.139 19.259 123.141Z" fill="#885205"/>
<path d="M2.70508 76.0114C2.81203 73.6415 2.53309 70.4912 4.07163 68.9161C8.38191 68.3922 24.1412 76.1126 28.6726 78.0562C39.1638 82.5143 49.7023 86.8567 60.2867 91.0836C63.0848 92.2144 71.567 95.8379 74.2354 96.1197C73.537 97.1819 73.7548 98.132 73.8058 99.447C72.7666 99.5301 69.4521 99.848 68.5893 99.5554C63.9621 97.9875 59.5517 95.6573 54.9593 93.9449C40.294 88.468 26.1365 81.7845 11.5891 76.0295C10.5387 75.614 8.43069 74.9746 7.40126 75.26L6.9767 76.062C5.56499 75.9139 3.81363 75.4406 2.70508 76.0114Z" fill="#926F1F"/>
<path d="M25.2083 41.9848C26.057 41.9775 27.0344 42.0714 27.7795 42.5302C36.6757 47.9962 45.8018 52.8589 55.1403 57.5266C58.389 59.1523 61.8964 60.8503 64.9023 62.8842C64.868 64.9182 65.3515 68.1262 63.4184 69.1053L62.2061 68.6465L36.047 56.8979C31.912 55.0302 24.396 51.8871 20.7104 49.622C22.2663 47.0714 23.5563 44.5967 25.2083 41.9848Z" fill="#885205"/>
<path d="M42.7168 23.3281C59.4701 26.7855 59.5901 29.1048 64.4221 45.0368L57.7289 42.1467C49.3855 38.4003 41.4684 33.8844 33.5109 29.3974C37.0786 26.4206 38.5145 25.1236 42.7168 23.3281Z" fill="#885205"/>
<path d="M179.702 111.683C179.821 109.754 179.543 105.17 181.8 104.682C184.88 104.017 203.4 100.574 205 101.456C206.019 103.259 205.922 104.635 205.999 106.73C204.174 112.641 199.685 112.28 194.441 113.53C188.648 114.913 185.005 114.295 179.702 111.683Z" fill="#885205"/>
<path d="M179.702 111.682C180.012 111.086 180.046 110.689 180.548 110.599C183.75 110.021 204.286 105.942 205.999 106.729C204.174 112.64 199.685 112.279 194.441 113.529C188.648 114.912 185.005 114.294 179.702 111.682Z" fill="#B26A01"/>
<path d="M74.2354 96.1195C97.6751 92.9909 120.83 90.3356 144.091 85.7403C146.028 85.3573 147.877 85.1622 149.814 85.6463L150.307 86.1882C150.066 87.2431 149.122 88.0415 148.221 88.5834C145.23 90.3753 83.6954 97.7489 73.8058 99.4468C73.7549 98.1318 73.537 97.1817 74.2354 96.1195Z" fill="#BB9541"/>
<path d="M200.438 114.138C202.075 113.975 203.756 114.026 205.403 114.004C205.155 117.053 205.811 122.718 204.006 125.189C202.292 127.53 194.45 128.025 191.509 128.559L186.135 129.687C186.302 125.554 186.645 121.417 186.908 117.291C191.408 116.157 195.856 114.907 200.438 114.138Z" fill="#B26A01"/>
<path d="M216.99 79.5173C214.993 78.5093 207.063 80.0881 204.461 80.4494C194.588 81.7897 184.695 82.9819 174.786 84.0223C171.664 84.3728 159.932 86.4248 157.936 84.6907C158.774 83.0903 175.639 80.8034 178.603 80.3482C187.106 79.0657 195.623 77.8699 204.152 76.7644C209.692 76.0382 217.548 74.8569 223.022 75.0881C223.276 77.635 223.672 80.4963 223.137 83.0035C223.033 81.4392 223.056 79.557 223.031 77.9638C221.024 78.112 218.448 78.1155 216.99 79.5173Z" fill="#BB9541"/>
<path d="M200.197 129.337C201.575 129.164 203.032 129.207 204.424 129.164C204.363 132.072 204.286 134.93 203.9 137.82C198.364 140.009 191.693 140.45 185.814 141.361C184.015 141.545 182.215 141.718 180.415 141.884C182.138 138.42 183.915 134.981 185.745 131.57C190.552 130.761 195.37 130.017 200.197 129.337Z" fill="#B26A01"/>
<path d="M146.754 96.4064C148.283 94.6145 149.224 93.2345 151.569 94.741C153.394 97.725 152.435 101.392 150.739 104.203C148.793 108.552 150.316 115.937 146.955 117.609C145.919 117.656 144.166 117.739 143.975 116.287C143.006 108.924 142.702 102.877 146.754 96.4064Z" fill="#F5CC59"/>
<path d="M146.754 96.4064C148.283 94.6145 149.224 93.2345 151.569 94.741C153.394 97.725 152.435 101.392 150.739 104.203C150.062 100.774 149.402 98.7077 146.754 96.4064Z" fill="#BB9541"/>
<path d="M166.449 93.7891C168.051 93.9625 169.78 94.1034 171.109 95.0897C175.816 98.5868 178.205 108.377 174.717 113.24C169.816 114.374 171.197 108.471 168.953 105.556C168.07 104.41 166.887 103.413 165.803 102.445C165.853 99.8476 165.968 96.2674 166.449 93.7891Z" fill="#F5CC59"/>
<path d="M155.187 88.0785C164.565 87.999 164.692 102.363 158.801 106.438C157.495 106.51 156.924 106.655 155.718 106.135C153.882 103.837 156.421 101.85 156.332 98.6926C156.241 95.4917 153.067 92.2619 152.77 89.3718C153.678 88.3277 153.655 88.5987 155.187 88.0785Z" fill="#F5CC59"/>
<path d="M164.672 106.355C166.905 106.93 168.711 111.42 167.371 112.876C165.051 115.398 157.729 115.774 154.538 116.092C153.447 116.103 153.101 116.2 152.173 115.618C149.138 108.624 156.365 110.384 160.348 109.202C162.225 108.646 163.267 107.649 164.672 106.355Z" fill="#885205"/>
</svg>
