<svg width="307" height="251" viewBox="0 0 307 251" fill="none" xmlns="http://www.w3.org/2000/svg">
<path d="M104.718 0.450097C108.053 -0.0665192 113.444 -0.550612 116.179 1.49779C119.366 3.88217 116.132 11.7254 119.955 12.4009C122.687 12.885 128.251 12.7405 131.149 12.7008L159.101 12.0686C164.564 11.953 175.809 11.1979 180.398 13.3836C188.535 18.1054 193.973 30.4319 198.667 38.4521C203.44 46.6096 210.728 56.9998 212.842 65.6522C215.273 66.9961 220.126 69.5503 221.412 71.4975C226.796 79.6478 229.997 81.3385 238.814 84.6766C240.906 85.4678 245.488 91.0169 248.263 92.1802C250.477 93.5314 253.386 93.9757 255.543 95.3161C263.525 100.287 275.817 102.083 282.253 108.611C283.799 110.182 282.025 128.184 281.642 131.107C280.45 132.267 279.008 133.286 277.938 134.582C277.299 135.363 276.901 136.497 276.807 137.48C275.886 146.891 274.499 158.065 273.693 167.267C273.198 172.917 270.405 192.144 270.893 195.933C274.069 199.748 288.215 197.223 290.364 202.693C292.789 210.019 284.887 211.934 279.59 212.368C272.089 212.982 264.645 216.952 261.035 208C237.3 212.396 213.066 219.492 189.334 223.661C175.802 226.363 162.256 228.982 148.691 231.522C144.854 232.234 140.887 232.649 137.19 233.339C132.742 234.17 127.608 238.144 122.593 238.206C120.392 238.231 117.592 237.461 115.63 236.457C110.943 234.065 105.856 231.074 101.401 228.256C88.7795 220.279 75.2947 212.136 64.0611 202.295C62.24 200.699 58.2184 196.121 57.9438 193.936C56.8887 185.634 58.1064 175.5 58.1895 167.245C58.3232 154.098 58.8544 140.54 58.316 127.509L54.6665 124.546C54.2546 119.615 54.6991 112.971 54.5582 107.643C40.8783 108.094 24.3258 106.078 13.6124 96.4324C-0.68533 83.5639 -3.34829 61.5445 3.88188 44.2866C6.15102 38.8676 9.81126 33.799 13.2186 28.9724C17.1824 23.3583 20.3259 16.0859 27.8849 14.7636C37.3372 13.0873 47.5556 13.1777 57.2248 12.9537C70.4927 12.6827 83.7571 12.2853 97.0178 11.7651C98.7197 5.30198 97.1154 1.27018 104.718 0.450097Z" fill="#010202"/>
<path d="M80.1654 14.5934C86.9693 14.3188 95.2509 14.6331 102.087 14.7704L131.221 15.1859C145.266 15.3231 159.311 14.9799 173.356 15.1859C178.873 15.0558 182.71 18.8347 185.702 23.1591C192.477 32.9387 197.344 44.073 203.566 54.2175C205.25 56.9632 207.122 60.0159 208.253 63.0217C208.502 63.69 208.531 63.8273 208.209 64.3764C205.402 63.9826 202.807 60.4241 199.975 58.4371C197.76 56.8981 195.288 55.7637 192.676 55.0846C189.084 54.1561 186.237 54.2753 182.577 54.315C180.289 52.1402 179.01 49.3693 177.529 46.6019C175.43 42.6388 168.055 27.2812 164.781 26.5767C153.526 24.149 133.19 25.287 121.595 25.3917C98.3945 25.5796 75.19 25.9084 51.9927 26.3852C49.3116 26.4322 35.5414 27.469 34.0816 26.8838C33.041 26.4683 32.2822 25.6302 31.9318 24.5716C31.1694 22.2704 32.2714 19.8282 33.3192 17.8159C34.4863 16.873 36.4953 16.1288 37.9659 16.0529C51.9891 15.3159 66.1387 15.2075 80.1654 14.5934Z" fill="#885205"/>
<path d="M264.638 136.175C268.721 135.178 269.863 134.943 274.025 135.204C273.975 136.41 273.805 141.602 273.411 142.548C272.439 152.223 269.899 198.075 264.027 203.115C263.095 203.917 262.13 204.304 260.967 204.654C252.093 207.317 242.55 208.639 233.491 210.742C208.198 216.793 182.765 222.244 157.211 227.093C152.977 227.938 148.724 228.679 144.453 229.322C138.993 230.124 134.889 230.051 129.725 232.154C129.7 232.129 129.678 232.103 129.657 232.078C128.298 230.322 129.245 213.755 129.013 210.117C128.62 203.899 126.82 197.916 126.929 191.616C127.066 183.242 128.388 174.625 129.237 166.287C131.51 166.244 134.679 166.013 136.753 166.779L137.201 167.927C137.078 169.474 137.071 171.139 137.006 172.711C136.489 185.391 135.412 198.083 135.123 210.767C135.069 213.242 135.279 217.786 136.572 219.932C136.865 220.416 138.137 221.063 138.693 221.027C144.189 220.778 150.733 219.466 156.095 218.476C164.796 216.919 173.468 215.229 182.114 213.408C194.121 210.752 206.085 207.685 218.102 205.048C226.774 203.263 235.367 202.024 243.966 199.878C260.768 195.684 260.082 182.628 261.48 168.321L263.998 142.653C264.212 140.565 264.501 138.246 264.638 136.175Z" fill="#F5CC59"/>
<path d="M264.638 136.175C268.721 135.178 269.863 134.943 274.025 135.204C273.975 136.41 273.805 141.602 273.411 142.548L273.227 142.079C271.98 141.204 265.87 142.378 263.998 142.653C264.212 140.565 264.501 138.246 264.638 136.175Z" fill="#BB9541"/>
<path d="M60.6827 135.329C60.5417 133.566 60.1479 131.391 60.7694 129.841C62.9807 127.916 66.959 130.911 69.0221 132.359C69.0655 136.828 69.3545 147.395 68.78 151.355C68.8415 159.137 67.9526 180.173 68.8776 186.344C69.7556 192.193 109.469 216.564 115.619 219.389C118.101 208.324 116.295 192.551 117.483 180.892C118.007 175.755 117.375 169.57 117.827 164.129C117.736 161.691 117.935 159.997 118.177 157.569C122.842 158.844 125.975 160.968 131.239 160.643C138.867 159.281 138.104 161.084 137.201 167.93L136.753 166.781C134.679 166.015 131.51 166.246 129.237 166.29C128.388 174.628 127.066 183.244 126.929 191.618C126.82 197.919 128.62 203.902 129.013 210.119C129.245 213.757 128.298 230.325 129.657 232.081C129.678 232.106 129.7 232.131 129.725 232.157C126.188 234.4 122.452 235.943 118.358 233.779C113.035 230.964 107.746 227.673 102.655 224.436C90.4525 216.669 77.4555 209.686 66.5254 200.144C64.8632 198.548 61.4667 195.025 61.0946 192.793C60.4839 188.587 60.6068 184.028 60.773 179.762C61.362 164.863 61.0946 150.235 60.6827 135.329Z" fill="#BB9541"/>
<path d="M118.177 157.566C122.842 158.842 125.975 160.966 131.239 160.641C128.901 162.021 129.433 163.643 129.371 166.241C124.692 165.681 122.34 165.077 117.827 164.127C117.736 161.689 117.935 159.994 118.177 157.566Z" fill="#926F1F"/>
<path d="M60.6827 135.329C60.5417 133.566 60.1479 131.391 60.7694 129.841C62.9807 127.916 66.959 130.911 69.0221 132.359C69.0655 136.828 69.3545 147.395 68.78 151.355C68.4874 148.183 68.6969 141.763 68.7186 138.356C66.9517 137.493 62.4423 134.971 60.6827 135.329Z" fill="#926F1F"/>
<path d="M57.9762 105.211C59.5552 105.764 62.3736 106.674 64.0212 106.399C82.3044 111.887 100.056 122.089 117.675 129.506C120.428 130.666 125.097 132.696 127.243 134.633C128.428 137.104 126.394 152.772 125.74 155.922C123.799 155.442 121.292 154.647 119.463 153.852C101.986 146.258 85.6756 136.074 68.1873 128.35C64.8523 126.876 60.6139 124.878 57.875 122.509C56.726 119.557 57.9581 109.427 57.9762 105.211Z" fill="#BB9541"/>
<path d="M201.442 123.738C203.151 123.402 202.576 123.268 204 123.875C205.774 126.422 204.484 127.643 201.94 128.33C201.351 128.684 196.636 131.881 196.827 131.813C194.298 138.276 194.941 139.186 193.539 145.216L189.46 145.935C182.71 147.159 175.986 148.51 169.291 149.992C161.822 151.614 135.665 157.611 129.707 156.993C127.402 154.746 129.147 139.312 130.863 136.552C134.693 133.579 192.423 124.453 201.442 123.738Z" fill="#F5CC59"/>
<path d="M189.46 145.935C189.525 138.659 189.915 135.104 196.827 131.812C194.298 138.276 194.941 139.186 193.539 145.216L189.46 145.935Z" fill="#BB9541"/>
<path d="M201.442 123.738C203.151 123.402 202.576 123.268 204 123.875C205.774 126.422 204.484 127.643 201.94 128.33C201.904 126.794 202.157 125.006 201.442 123.738Z" fill="#BB9541"/>
<path d="M225.571 187.705C233.405 185.151 242.337 184.038 250.459 182.459C252.848 181.997 255.261 181.939 256.212 184.471C255.814 188.785 248.338 195.512 244.216 196.628C234.453 199.276 223.981 200.241 214.168 202.712C196.546 207.148 178.992 211.187 161.049 214.172C154.104 215.328 146.552 217.524 139.535 217.452L138.939 217.448C138.82 217.448 138.701 217.445 138.581 217.441L138.733 206.458C145.906 205.223 153.873 203.261 161.096 201.704L190.533 195.591C194.28 194.804 205.203 192.033 208.43 191.856C211.057 190.729 222.402 188.225 225.571 187.705Z" fill="#B26A01"/>
<path d="M208.43 191.858C211.057 190.731 222.402 188.227 225.571 187.707C223.118 191.052 221.658 190.839 218.547 192.96C215.801 192.906 210.659 193.076 208.43 191.858Z" fill="#885205"/>
<path d="M26.8081 17.7306C27.5452 17.698 28.2535 17.6908 28.9906 17.6836C29.6193 18.659 28.6076 23.0123 28.7593 24.6127C29.3013 30.487 48.6504 78.0374 52.4986 85.5915C53.98 88.4998 55.8156 91.7078 58.3449 93.8393C58.4749 93.9477 58.6086 94.0489 58.7387 94.1572C61.604 96.5127 68.0791 93.0229 71.0456 95.7143L70.8215 96.3068C67.2878 98.7165 61.8353 99.038 57.6764 100.722L55.9999 102.12C52.336 105.205 45.6659 108.077 43.039 102.185C34.7321 83.4312 26.6311 64.3272 20.0152 44.8944C18.6783 40.9747 16.4995 32.203 17.8328 28.388C19.2058 24.4646 23.0828 19.6597 26.8081 17.7306Z" fill="#BB9541"/>
<path d="M86.449 39.1996C96.3783 38.6107 106.658 39.6259 116.623 39.5608C130.423 39.4669 144.551 38.6721 158.332 39.0081C157.399 41.8658 156.279 44.1056 154.993 46.7935C151.43 47.4907 140.735 47.675 136.536 47.8628L103.583 49.503L43.7978 56.107C41.8213 51.0528 39.18 46.4936 38.1575 41.1794C41.1962 40.7783 44.8131 40.7097 47.9097 40.5615C60.7405 39.9582 73.6074 39.7162 86.449 39.1996Z" fill="#5E3901"/>
<path d="M149.277 48.918L153.829 48.9974L152.843 55.5075C146.379 55.1318 138.513 54.3948 132.609 57.5343C128.688 59.7488 125.433 62.5198 120.732 62.9714C103.381 64.6477 85.9214 65.2582 68.6644 67.9352C63.0277 68.8095 55.8011 69.6079 50.4137 71.4179L49.9404 71.2553C48.6324 69.3225 44.9432 60.4894 46.0633 58.3977C55.6024 52.8377 133.158 50.0018 149.277 48.918Z" fill="#5E3901"/>
<path d="M140.771 27.9751C146.252 27.921 151.817 27.8379 157.305 27.8776C159.672 27.892 161.855 28.1377 162.772 30.504C162.559 32.8956 159.513 36.5264 157.356 36.7504C149.783 37.6066 142 37.0972 134.383 37.4188C108.689 38.5098 82.1058 36.2627 56.5021 37.9715C54.6919 38.1305 52.5239 38.2894 50.6919 38.3111C40.9975 38.4195 36.6652 41.8371 34.4358 30.4968C48.029 28.8964 61.0512 29.6804 74.471 28.9903C96.559 27.8487 118.791 28.8169 140.771 27.9751Z" fill="#5E3901"/>
<path d="M278.419 109.25C281.042 111.96 279.543 116.862 279.355 120.395C279.21 123.087 279.405 127.678 278.065 129.832C275.105 131.558 235.804 137.281 229.921 137.664C229.491 136.526 228.462 133.712 227.887 132.801C226.048 129.889 222.485 127.917 220.115 125.496C219.645 125.016 218.265 122.035 217.9 121.255C229.412 119.275 241.632 118.965 253.191 116.913C258.972 115.887 269.447 115.464 273.696 111.425C275.373 110.294 276.54 109.954 278.419 109.25Z" fill="#F5CC59"/>
<path d="M265.718 102.949C271.142 104.477 273.942 105.763 278.419 109.25C276.54 109.954 275.373 110.294 273.696 111.425C272.024 111.302 258.242 114.564 254.438 114.907C233.231 116.815 212.636 119.362 191.617 122.624C171.914 125.68 150.679 130.709 131.156 132.989C131.38 128.827 131.622 128.56 133.881 125.044C136.493 124.3 141.017 123.729 143.799 123.278L158.7 120.796C183.646 116.732 208.708 113.397 233.849 110.792C242.532 109.839 254.311 109.391 262.998 107.747C264.204 107.519 265.238 104.228 265.718 102.949Z" fill="#BB9541"/>
<path d="M229.072 152.901C229.885 152.739 230.651 152.504 231.41 152.988C232.736 153.837 233.484 155.6 233.867 157.06C235.396 162.883 234.236 169.997 231.125 175.123C228.903 178.786 225.542 181.547 221.293 182.471C216.198 183.584 211.212 182.312 206.945 179.466C203.06 176.221 200.199 171.922 198.71 167.085C198.161 165.286 196.838 160.336 197.955 158.736C199.707 156.218 213.138 154.209 216.408 153.927C220.444 153.573 224.39 153.841 228.393 153.042L229.072 152.901Z" fill="#F5CC59"/>
<path d="M214.988 158.198C216.531 158.179 217.738 158.255 219.085 159.068C220.386 159.849 221.094 160.954 221.383 162.432C221.694 164.021 220.874 174.783 220.039 175.972C219.533 175.986 219.028 175.997 218.522 176.001C217.445 175.994 216.484 175.961 215.758 175.072C213.749 172.619 212.43 165.495 212.697 162.374C212.856 160.549 213.647 159.379 214.988 158.198Z" fill="#010202"/>
<path d="M194.183 180.743C196.983 180.136 198.338 179.923 201.185 179.691C207.422 184.756 208.965 184.944 216.628 187.032C211.559 188.795 206.843 189.529 202.504 190.985C183.849 195.432 164.929 198.647 146.213 202.831C143.734 203.384 141.248 203.893 138.748 204.334C138.701 201.733 137.927 194.056 139.532 192.13C141.486 189.785 188.065 181.722 194.183 180.743Z" fill="#B26A01"/>
<path d="M194.182 180.743C196.983 180.136 198.338 179.923 201.185 179.691C207.422 184.756 208.964 184.944 216.628 187.032C211.559 188.795 206.843 189.529 202.504 190.985C201.944 189.294 196.264 183.366 195.086 181.111C194.786 180.988 194.482 180.866 194.182 180.743Z" fill="#885205"/>
<path d="M111.092 65.2183C113.664 65.063 120.179 64.4452 122.416 65.7602L122.21 66.2732C119.388 67.5919 115.836 67.675 112.313 69.2212C108.262 70.9986 103.702 74.8751 100.158 76.1612C88.5699 80.3628 73.7157 81.1792 61.492 82.7688C59.2698 82.9603 57.203 83.2385 54.9953 83.5383C53.2465 80.1171 52.0577 77.3281 51.028 73.6431C69.9543 67.8845 91.41 66.7573 111.092 65.2183Z" fill="#5E3901"/>
<path d="M206.323 144.517C208.715 143.946 213.373 143.122 215.523 144.311C217.076 145.171 217.203 146.121 217.813 147.696C217.998 149.278 218.207 148.635 217.463 149.766C212.263 152.345 203.418 153.216 197.575 154.571C194.992 155.171 193.12 157.436 190.609 158.025C184.983 159.347 143.242 167.074 141.165 166.381C140.995 166.323 140.84 166.225 140.673 166.146C139.423 163.476 139.944 162.418 140.536 159.513C146.975 157.302 158.928 155.456 165.75 153.877C174.169 151.93 183.238 150.239 191.729 148.44C194.659 147.819 196.705 149.961 199.165 151.8C201.926 151.713 203.003 151.666 204.596 149.336C205.095 147.696 205.72 146.121 206.323 144.517Z" fill="#B26A01"/>
<path d="M140.536 159.511C146.975 157.3 158.928 155.454 165.75 153.875C174.169 151.928 183.238 150.237 191.729 148.438C194.659 147.816 196.705 149.959 199.165 151.798C195.173 155.363 193.146 152.516 189.334 153.387C177.793 156.028 166.498 159.301 154.78 161.303C150.375 162.054 145.634 164.124 140.973 164.973C140.818 165.472 140.742 165.623 140.673 166.144C139.423 163.474 139.944 162.415 140.536 159.511Z" fill="#885205"/>
<path d="M206.323 144.517C208.715 143.946 213.373 143.122 215.523 144.311C217.076 145.171 217.203 146.121 217.813 147.696C213.022 147.447 208.766 149.13 204.596 149.336C205.095 147.696 205.72 146.121 206.323 144.517Z" fill="#885205"/>
<path d="M189.326 170.827C191.079 170.52 192.658 170.246 194.435 170.047C196.73 171.745 200.022 174.27 198.222 177.363C197.145 178.327 195.946 178.392 194.482 178.699C183.899 181.232 172.929 183.035 162.216 185.032C154.462 186.477 146.729 188.161 138.993 189.555C139.087 186.467 139.347 183.179 139.535 180.079C145.309 178.443 153.222 177.027 159.289 175.899C169.002 174.093 179.545 172.106 189.326 170.827Z" fill="#B26A01"/>
<path d="M189.326 170.827C191.079 170.52 192.658 170.246 194.435 170.047C196.73 171.745 200.022 174.27 198.222 177.363C197.145 178.327 195.946 178.392 194.482 178.699C194.002 176.636 193.351 173.049 192.043 171.405C191.332 170.513 190.602 170.809 189.326 170.827Z" fill="#885205"/>
<path d="M12.5934 34.1602C13.6124 34.7526 14.1905 35.4607 14.5988 36.5698C16.7342 42.119 12.214 46.1724 10.3749 50.8002C4.5647 65.4245 12.373 88.4157 27.8523 93.9251C31.6751 95.2835 37.3516 94.4525 38.8764 99.3369C39.2847 100.645 39.245 101.302 38.6777 102.512C37.8069 103.221 37.619 103.112 36.4917 103.177C19.7044 100.186 7.64685 90.2185 3.53132 72.957C0.174582 58.8855 5.0272 46.0604 12.5934 34.1602Z" fill="#BB9541"/>
<path d="M71.7248 180.707C78.7418 181.769 108.215 197.947 114.213 203.052C114.224 206.932 113.914 210.862 113.733 214.739C107.211 213.239 78.8032 192.679 72.7799 187.271C71.938 185.028 71.6706 183.081 71.7248 180.707Z" fill="#885205"/>
<path d="M192.571 160.156C193.532 160.21 193.59 160.178 194.309 160.799C194.761 162.519 195.23 164.477 194.54 166.171C191.729 169.195 149.826 175.568 142.137 177.111C141.949 177.118 141.765 177.147 141.58 177.132C141.161 177.103 140.547 177.056 140.28 176.699C139.058 175.073 139.669 171.529 139.752 169.596C147.102 166.124 182.613 161.359 192.571 160.156Z" fill="#B26A01"/>
<path d="M71.7754 168.43C77.0364 169.662 104.374 183.498 110.047 186.945C111.561 187.862 112.757 188.856 113.979 190.138C114.38 193.278 114.213 196.598 114.239 199.766C109.588 197.595 74.3553 179.412 72.7221 177.577C71.0419 175.684 71.7068 170.879 71.7754 168.43Z" fill="#885205"/>
<path d="M72.6354 145.66C77.6434 147.315 112.468 164.219 114.141 166.776C115.532 168.893 114.343 172.47 113.776 174.706C111.117 174.128 75.1682 156.737 72.9678 154.898C71.6561 152.185 72.3608 148.749 72.6354 145.66Z" fill="#885205"/>
<path d="M71.7104 157C79.1104 160.436 110.134 173.691 113.494 177.896C115.175 179.995 114.253 183.524 113.932 185.938L113.382 186.227C105.679 183.369 76.7581 169.435 71.6489 164.695C71.573 162.141 71.6814 159.558 71.7104 157Z" fill="#885205"/>
<path d="M57.9763 105.214C59.4361 102.324 68.8668 100.059 71.2732 101.89C75.9596 105.46 79.8258 106.298 85.2277 108.184C90.7632 110.153 96.288 112.154 101.802 114.192C108.208 116.551 128.468 125.069 133.881 125.044C131.622 128.559 131.38 128.827 131.156 132.988C109.932 125.275 89.9611 112.364 68.1513 105.929C66.3266 105.391 65.4016 105.026 64.0213 106.403C62.3737 106.677 59.5553 105.767 57.9763 105.214Z" fill="#926F1F"/>
<path d="M72.5053 143.108C72.3246 140.926 71.7574 136.616 72.209 134.651C73.7519 134.149 74.0374 134.449 75.4393 135.178C88.3387 141.894 101.097 148.885 113.993 155.597C116.638 156.974 115.167 160.677 115.247 163.177L114.672 163.444C110.264 162.823 96.642 154.998 92.0604 152.711C85.907 149.64 78.9405 145.749 72.5053 143.108Z" fill="#5E3901"/>
<path d="M72.5052 143.109C72.7004 142.087 72.6209 141.306 73.2388 140.848C79.291 143.727 85.1229 147.181 91.4642 149.193C93.5816 149.865 114.52 162.242 115.247 163.178L114.672 163.445C110.264 162.824 96.642 154.999 92.0604 152.712C85.907 149.641 78.9405 145.75 72.5052 143.109Z" fill="#885205"/>
<path d="M161.117 68.0523C164.677 67.496 174.996 67.5357 174.931 72.1275C174.823 79.5624 161.385 80.126 156.832 80.2633C155.163 80.3717 153.493 80.4692 151.82 80.5559C146.968 80.798 144.919 80.4511 141.364 77.2358C145.916 68.2619 152.193 68.8471 161.117 68.0523Z" fill="#FB8584"/>
<path d="M104.002 82.6593C104.635 72.9954 125.075 65.9759 130.368 72.5655C132.887 80.3581 111.055 92.1246 104.002 82.6593Z" fill="#F5CC59"/>
<path d="M130.368 72.5664C132.887 80.359 111.055 92.1256 104.002 82.6603C107.146 82.4327 109.664 82.1473 112.739 81.3127C114.474 80.4565 121.483 78.0794 123.89 77.1184C124.027 77.01 124.164 76.9053 124.302 76.8005C126.874 76.2188 128.497 74.4739 130.368 72.5664Z" fill="#BB9541"/>
<path d="M123.89 77.1172L124.063 77.5796C121.87 80.0363 115.966 82.3014 112.739 81.3115C114.474 80.4553 121.483 78.0782 123.89 77.1172Z" fill="#010202"/>
<path d="M138.755 58.9734C142.303 58.8397 151.372 58.0738 153.591 60.2992C160.817 67.5571 141.212 67.5788 138.838 70.5448L139.17 71.0759L141.212 71.2782C141.194 73.0882 139.803 74.8548 138.05 75.2955C134.744 76.1265 132.948 71.3252 130.809 69.6597C129.407 68.5651 127.626 67.6872 126.108 66.8707C130.217 62.3657 132.547 60.2414 138.755 58.9734Z" fill="#F5CC59"/>
<path d="M230.03 141.23C237.867 139.092 252.338 137.354 260.992 136.035C261.09 138.716 261.151 141.4 261.184 144.081C259.923 144.362 258.582 144.561 257.307 144.778C253.628 145.475 232.364 149.948 230.398 148.954L230.167 148.568C229.719 146.136 229.94 143.705 230.03 141.23Z" fill="#885205"/>
<path d="M230.167 148.567C230.185 146.873 230.156 146.381 230.518 144.759C230.995 144.575 258.824 144.062 258.51 143.816L257.307 144.777C253.628 145.475 232.364 149.947 230.398 148.954L230.167 148.567Z" fill="#B26A01"/>
<path d="M164.637 31.6055C168.218 34.4451 174.458 47.9349 176.875 52.7253C173.197 52.4905 169.901 52.2629 166.205 52.476C162.469 52.7795 158.758 54.0331 155.076 54.9869C156.615 49.2391 161.808 36.8583 164.637 31.6055Z" fill="#5E3901"/>
<path d="M260.02 146.44L260.4 146.426L260.826 146.845C261.075 149.807 260.58 152.903 260.096 155.826C254.857 157.434 243.377 161.292 238.416 160.411C237.661 157.567 236.061 153.919 236.259 150.963C237.892 149.666 256.819 146.787 260.02 146.44Z" fill="#B26A01"/>
<path d="M16.5067 47.207C17.9122 48.9231 34.4213 89.9489 34.3563 91.2928C33.5686 91.9829 33.3446 91.8203 32.1486 92.0551C31.6066 91.8998 31.1296 91.7408 30.6527 91.4301C28.2318 89.8586 14.1075 57.9187 13.7678 53.8111C13.5185 50.8053 14.6025 49.3277 16.5067 47.207Z" fill="#885205"/>
<path d="M102.051 92.8459C106.138 90.3603 112.15 86.5634 116.898 87.752C124.11 89.5583 121.736 98.0771 116.009 100.27C112.338 101.675 109.184 101.556 105.404 102.38C103.85 102.737 102.488 103.29 100.956 103.615C99.9301 103.601 98.875 103.633 97.8452 103.648L97.7188 103.265L98.7233 101.618C102.084 98.2396 102.022 97.5966 102.051 92.8459Z" fill="#F5CC59"/>
<path d="M181.764 61.9553C181.59 60.0009 181.345 60.4235 182.093 58.8954C184.492 57.1215 186.096 57.3419 188.914 57.7321C195.628 58.6605 200.105 62.1432 203.198 67.9416C201.38 68.9098 199.733 69.8238 197.825 70.6186C193.128 72.1973 181.525 71.1605 178.729 66.594L179.014 65.9979C179.928 64.6649 180.889 63.3065 181.764 61.9553Z" fill="#F5CC59"/>
<path d="M197.825 70.6168C193.128 72.1955 181.525 71.1587 178.729 66.5922L179.014 65.9961C180.85 66.5308 185.319 67.5098 187.162 67.5423C190.754 67.4773 191.534 67.1738 194.475 69.2042C195.429 69.9701 196.679 70.1001 197.825 70.6168Z" fill="#BB9541"/>
<path d="M187.162 67.5425C190.754 67.4775 191.534 67.174 194.475 69.2044C193.698 69.7029 192.867 69.7896 191.95 69.7644C190.118 69.6957 188.394 68.8973 187.162 67.5425Z" fill="#010202"/>
<path d="M264.974 205.736C265.574 204.826 266.343 203.724 267.113 202.961C271.724 198.406 283.597 198.402 288.063 203.279C288.356 204.128 288.959 205.342 288.457 206.209C286.029 210.418 278.972 211.198 274.574 211.48C271.565 211.675 264.248 212.51 263.319 208.781C263.467 207.325 263.876 206.78 264.974 205.736Z" fill="#BB9541"/>
<path d="M264.974 205.736C265.574 204.826 266.343 203.724 267.113 202.961C271.724 198.406 283.597 198.402 288.063 203.279C284.02 204.966 269.136 207.177 264.974 205.736Z" fill="#F5CC59"/>
<path d="M99.6736 95.3867C98.5029 102.392 91.7894 105.249 85.1157 104.147C81.7012 103.584 72.0826 100.546 73.6869 95.6937C74.5288 93.1468 80.021 89.1765 83.02 90.7155C84.1185 91.279 84.646 92.7097 85.1844 93.8079C87.5005 95.5023 88.9819 96.0008 91.8617 95.5565C92.2122 95.5023 92.5591 95.4408 92.906 95.3758C96.0784 94.6244 96.4181 94.5088 99.6736 95.3867Z" fill="#F5CC59"/>
<path d="M85.1843 93.8086C87.5004 95.503 88.9819 96.0015 91.8616 95.5571C92.2121 95.5029 92.559 95.4415 92.9059 95.3765C96.0784 94.6251 96.418 94.5095 99.6736 95.3873C97.7621 95.6258 97.1623 96.0232 95.4388 96.8288C92.5879 97.7356 88.0243 99.1735 85.6612 96.8108C85.0542 95.4488 85.1084 95.3404 85.1843 93.8086Z" fill="#BB9541"/>
<path d="M255.941 171.363C256.808 171.537 256.989 171.562 257.639 172.147C257.971 173.946 258.091 176.959 256.844 178.401C254.944 180.597 233.257 183.993 228.899 184.821C228.281 184.933 228.343 185.005 227.721 184.712C227.92 184.297 228.097 183.914 228.382 183.549C237.73 171.634 242.113 173.235 255.941 171.363Z" fill="#B26A01"/>
<path d="M246.008 95.7305C247.999 95.7485 250.445 96.0339 252.172 97.0527C254.495 98.4219 262.156 101.355 260.555 104.679C258.954 105.268 247.273 106.081 244.974 106.276C241.867 106.601 234.846 107.844 232.505 106.543C231.844 105.384 231.927 104.668 232.118 103.176C232.686 98.7724 238.738 101.738 241.596 99.8019C243.544 98.4797 243.815 97.2659 246.008 95.7305Z" fill="#F5CC59"/>
<path d="M257.755 159.051C258.318 158.989 258.434 159.047 258.94 159.249C259.139 159.611 259.308 159.929 259.395 160.337C259.738 161.97 259.583 165.702 258.568 167.096C256.219 170.33 243.648 171.352 239.435 172.067C238.897 172.013 238.453 171.894 237.936 171.749C236.79 169.82 237.809 165.655 238.095 163.426C243.75 160.774 251.58 160.124 257.755 159.051Z" fill="#B26A01"/>
<path d="M163.593 99.8499C166.433 99.7017 170.216 99.2971 171.133 102.509C170.537 107.906 157.002 109.554 152.666 109.929C149.999 109.774 145.884 109.756 145.064 106.653C145.197 105.587 145.443 104.835 146.292 104.102C151.871 99.3044 157.157 100.034 163.593 99.8499Z" fill="#F5CC59"/>
<path d="M163.466 104.64L163.6 104.994C161.779 106.045 156.651 106.54 154.483 106.8L154.119 106.389L154.574 105.872C157.573 104.712 160.308 104.615 163.466 104.64Z" fill="#0D0902"/>
<path d="M151.452 112.246C154.321 111.639 157.233 111.076 160.102 110.498C166.808 109.147 171.256 106.231 177.706 109.548C177.869 111.365 178.002 111.766 177.561 113.482C175.628 115.53 151.615 118.334 147.416 118.811C148.055 117.463 148.738 115.917 149.465 114.631C149.985 113.695 150.711 113.03 151.452 112.246Z" fill="#BB9541"/>
<path d="M149.465 114.63C153.591 114.926 162.617 115.208 166.115 113.806C170.498 112.047 172.846 110.699 177.706 109.547C177.869 111.364 178.002 111.765 177.561 113.481C175.628 115.529 151.615 118.333 147.416 118.81C148.055 117.462 148.738 115.916 149.465 114.63Z" fill="#F5CC59"/>
<path d="M219.801 75.7891L220.382 75.836C222.377 77.0138 226.026 83.401 227.233 85.5687C223.096 87.9783 217.329 89.138 212.628 90.2074C206.254 88.8201 202.84 84.7269 209.893 80.6446C213.058 78.8165 216.487 77.3425 219.801 75.7891Z" fill="#F5CC59"/>
<path d="M120.826 86.3258C122.213 85.3431 123.76 84.4255 125.256 83.4139C128.356 81.3186 134.791 73.4212 137.884 79.3388C138.267 80.0722 138.632 83.161 138.762 84.1329L141.613 88.8258C140.757 89.0823 138.563 89.6748 137.848 89.9891C129.223 92.4277 125.848 95.2456 120.826 86.3258Z" fill="#F5CC59"/>
<path d="M138.762 84.1328L141.613 88.8257C140.757 89.0822 138.563 89.6747 137.848 89.989C137.653 87.3987 137.291 86.2426 138.762 84.1328Z" fill="#BB9541"/>
<path d="M84.122 82.1281C84.5556 82.0775 85.0795 82.1426 85.5348 82.1679L85.831 82.7061C84.5628 86.1888 77.0074 89.1584 73.7482 90.5204C69.7772 92.1823 64.1261 92.8723 60.1045 91.149C58.5544 89.8051 56.5996 87.7061 57.0874 85.5421C59.0892 84.7907 80.7652 82.5075 84.122 82.1281Z" fill="#5E3901"/>
<path d="M164.026 56.072C184.015 53.9947 178.649 68.1637 172.275 65.7396C169.663 64.356 168.34 64.6161 165.493 64.8147C161.439 65.0965 154.7 65.3856 156.875 59.1862C158.657 57.6183 161.761 56.7657 164.026 56.072Z" fill="#F5CC59"/>
<path d="M139.795 91.553C144.756 90.0935 148.196 95.0898 151.011 98.7784L147.539 99.9056C145.306 100.787 143.94 101.77 142.209 103.406C139.337 103.475 127.789 104.281 130.719 97.3658C131.951 94.4504 136.753 92.4453 139.795 91.553Z" fill="#F5CC59"/>
<path d="M139.796 91.553C144.757 90.0935 148.196 95.0898 151.011 98.7784L147.539 99.9056C142.697 95.1476 144.587 98.0667 139.796 91.553Z" fill="#BB9541"/>
<path d="M87.186 87.3536C90.3368 81.2626 94.8353 79.8789 101.206 80.1788C101.863 81.8623 102.546 83.5386 103.251 85.2077L105.458 88.5205C99.7313 91.6997 96.9202 92.8594 90.2718 93.2893C87.3775 91.9851 85.7913 90.9013 87.186 87.3536Z" fill="#BB9541"/>
<path d="M87.186 87.3536C90.3368 81.2626 94.8354 79.8789 101.206 80.1788C101.863 81.8623 102.546 83.5386 103.251 85.2077C100.335 86.5841 101.881 85.5834 99.8289 85.7243C97.9753 86.5263 95.9736 87.4801 94.0477 88.0075C91.5509 87.1694 89.8599 88.2206 87.186 87.3536Z" fill="#F5CC59"/>
<path d="M99.8289 85.7266C100.006 88.1904 95.605 89.1045 93.6972 88.7721L93.6429 88.3458L94.0477 88.0098C95.9736 87.4824 97.9753 86.5286 99.8289 85.7266Z" fill="#0D0902"/>
<path d="M140.598 106.758C142.379 107.986 143.965 109.42 145.602 110.833C144.897 112.784 141.797 114.587 139.918 115.338C135.037 117.513 132.388 118.727 127.055 119.742C120.251 118.6 120.595 114.872 126.387 112.296C130.979 110.251 135.886 108.542 140.598 106.758Z" fill="#F5CC59"/>
<path d="M178.57 73.1891L178.801 72.2317C180.658 71.2779 189.854 73.4058 192.275 73.8285C194.049 74.1392 194.266 76.1226 194.591 77.6219C194.826 78.7635 195.003 79.4896 193.998 80.3819C191.339 82.7446 179.596 85.0279 177.121 82.116C177.066 80.0279 178.125 75.4362 178.57 73.1891Z" fill="#F5CC59"/>
<path d="M178.569 73.1891L178.801 72.2317C180.658 71.2779 189.854 73.4058 192.275 73.8285C194.049 74.1392 194.266 76.1226 194.591 77.6219C187.328 77.369 184.849 76.7693 178.569 73.1891Z" fill="#BB9541"/>
<path d="M106.969 111.142C104.367 111.406 98.286 110.506 96.8696 108.05L97.2418 107.193C101.068 103.96 114.365 101.232 118.535 104.314C121.581 110.004 112.743 115.578 107.298 112.121L106.969 111.142Z" fill="#F5CC59"/>
<path d="M118.535 104.312C121.581 110.003 112.743 115.577 107.298 112.12L106.969 111.14C108.895 110.263 110.824 109.399 112.764 108.547C115.279 107.159 116.331 106.195 118.535 104.312Z" fill="#BB9541"/>
<path d="M112.764 108.547L112.822 109.212C110.969 110.834 109.064 110.888 107.298 112.12L106.969 111.141C108.895 110.263 110.824 109.399 112.764 108.547Z" fill="#0D0902"/>
<path d="M201.178 90.3872C205.535 90.0512 206.045 90.1126 210.164 91.5613C208.809 92.6271 206.963 93.8337 205.478 94.7477C202.721 96.4457 202.938 96.2903 201.817 99.2925C200.585 100.149 199.01 100.149 197.456 100.34C192.875 100.615 190.23 101.428 187.494 97.3236C192.033 92.4392 194.764 91.5577 201.178 90.3872Z" fill="#F5CC59"/>
<path d="M223.335 90.383C226.03 90.1879 228.715 90.7695 230.489 92.9227C230.901 95.6973 226.782 96.4667 224.639 97.0448C221.073 98.0094 217.409 98.8656 213.792 99.6134C210.132 99.9566 208.954 99.5303 205.984 97.7023C212.686 93.7067 216.007 92.6301 223.335 90.383Z" fill="#39D567"/>
<path d="M199.154 80.9632C200.658 80.8873 202.446 80.9307 203.975 80.927C204.184 83.9437 204.188 84.901 203.823 87.8851C200.423 89.1965 195.584 90.3454 191.975 91.3099C189.962 91.5954 187.957 91.776 186.638 90.0166C186.465 85.3635 195.212 81.758 199.154 80.9632Z" fill="#F5CC59"/>
<path d="M206.515 69.0371C207.555 68.9648 208.6 68.9432 209.644 68.9757C212.357 69.0768 216.95 70.1028 216.534 73.5927C214.832 76.1397 211.125 76.6274 208.202 77.2126C202.522 78.1953 201.026 79.1743 196.849 74.915C200.069 71.6816 202.146 70.3485 206.515 69.0371Z" fill="#F5CC59"/>
<path d="M105.166 3.03545C107.417 2.96681 112.978 2.52247 114.542 4.09761C116.302 5.87145 115.077 10.1525 113.371 11.6265C112.403 12.461 111.222 12.2587 110.018 12.2406C106.477 12.2045 103.345 12.1575 99.8036 11.9047C100.436 7.25149 99.9662 3.92418 105.166 3.03545Z" fill="#F5CC59"/>
<path d="M170.913 97.8124C176.795 94.4056 179.393 93.3073 186.161 93.3868C185.648 95.3124 185.059 97.1043 185.117 99.1057C185.879 100.388 185.969 101.104 186.345 102.57C183.812 103.307 175.903 105.941 173.713 105.486C173.417 104.098 174.447 103.329 174.873 101.866C173.93 99.9439 172.571 99.1093 170.913 97.8124Z" fill="#F5CC59"/>
<path d="M185.117 99.1055C185.879 100.388 185.969 101.103 186.345 102.57C183.812 103.307 175.903 105.941 173.713 105.486C173.417 104.098 174.447 103.329 174.873 101.866L175.372 102.314C176.286 101.992 185.026 99.1705 185.117 99.1055Z" fill="#BB9541"/>
<path d="M119.883 101.156C122.159 97.4857 124.02 93.0168 129.064 94.9785C131.138 99.2631 124.201 100 131.532 105.076C133.078 105.564 134.003 106.041 135.449 106.734C132.536 107.952 125.245 111.586 122.697 109.064C122.571 108.252 122.495 107.984 122.538 107.168C121.949 104.241 121.791 103.421 119.883 101.156Z" fill="#F5CC59"/>
<path d="M131.532 105.074C133.078 105.562 134.003 106.039 135.449 106.732C132.536 107.95 125.245 111.584 122.697 109.063C122.571 108.25 122.495 107.982 122.538 107.166C124.959 106.942 129.447 106.191 131.532 105.074Z" fill="#BB9541"/>
<path d="M205.015 130.387C206.522 130.383 208.397 131.644 208.368 133.234C208.314 136.366 204.979 139.014 203.754 141.637C202.681 143.927 202.623 146.135 201.08 148.291C195.169 147.793 196.65 138.905 198.656 135.455C200.592 132.124 201.521 131.452 205.015 130.387Z" fill="#F5CC59"/>
<path d="M196.781 103.014C199.66 102.743 200.202 102.884 203.089 103.299C206.255 105.673 207.877 106.818 210.283 109.936L204.621 110.962C202.706 111.211 196.39 112.497 195.252 111.883C189.471 108.776 193.623 104.698 196.781 103.014Z" fill="#F5CC59"/>
<path d="M12.8681 60.1523C14.3279 60.9688 24.5245 84.7115 26.1397 88.4145C23.9934 87.8365 21.3123 85.8134 19.961 84.1118C13.5185 76.0085 12.3044 69.8922 12.8681 60.1523Z" fill="#885205"/>
<path d="M208.889 124.008C209.283 123.979 209.676 123.95 210.07 123.925C217.521 123.445 218.926 128.679 217.788 135.258C217.42 137.401 216.69 138.437 215.158 139.944C213.308 140.312 211.815 140.713 210.63 139.16C210.381 137.56 211.035 136.176 211.559 134.59C210.587 130.731 209.073 128.571 208.043 124.991C207.924 124.572 208.423 124.37 208.889 124.008Z" fill="#F5CC59"/>
<path d="M174.494 84.6133C177.84 84.9059 180.68 85.1696 184.011 85.8163C183.989 87.1385 184.076 89.3387 183.668 90.502C182.129 91.3726 177.334 92.7635 175.296 93.6342C172.185 94.9564 169.641 96.4521 166.541 97.637C168.048 93.9738 170.216 90.8741 172.384 87.5901L174.494 84.6133Z" fill="#F5CC59"/>
<path d="M174.494 84.6133C177.84 84.9059 180.68 85.1696 184.011 85.8163C183.99 87.1385 184.076 89.3387 183.668 90.502C182.273 89.5446 176.651 89.7108 172.384 87.5901L174.494 84.6133Z" fill="#BB9541"/>
<path d="M228.921 84.3828C234.68 85.2318 246.076 90.4738 241.401 97.869C239.923 98.494 237.632 99.1118 236.183 98.3098C232.819 96.4528 234.377 90.1631 230.59 88.5844C229.777 88.2484 229.387 87.8763 228.809 87.2477C228.382 86.0446 228.613 85.622 228.921 84.3828Z" fill="#F5CC59"/>
<path d="M141.168 81.0273C146.191 82.234 146.05 83.6032 151.477 83.0721C152.998 89.0981 154.216 90.9009 154.173 97.3784L153.75 97.6639C148.984 96.0273 142.48 85.8503 141.168 81.0273Z" fill="#AE5C5B"/>
<path d="M222.102 131.539C227.457 133.699 226.857 142.901 226.724 147.778C226.688 149.133 225.647 150.076 224.585 150.788C216.469 149.14 220.531 136.478 222.102 131.539Z" fill="#F5CC59"/>
<path d="M162.071 82.1094L162.758 82.3731C163.325 84.4974 161.197 96.3723 158.408 97.6404C157.136 97.2538 157.685 97.6043 156.836 96.3651C156.077 92.5357 154.704 86.8276 153.522 83.1896L162.071 82.1094Z" fill="#AE5C5B"/>
<path d="M173.804 78.3359L174.393 78.4118L174.714 78.8381C174.396 81.2658 165.377 94.5534 163.444 96.8619C162.743 96.5765 163.011 96.7282 162.49 96.0598C162.31 92.6422 164.684 85.6842 166.19 82.5447C168.806 80.8251 171.029 79.7341 173.804 78.3359Z" fill="#AE5C5B"/>
<path d="M183.44 105.179C185.879 104.908 187.4 104.962 189.854 105.02C190.107 107.534 190.696 110.041 189.785 112.281C188.643 113.192 188.867 112.903 187.158 113.101C185.363 113.362 182.786 113.481 180.907 113.618C180.629 111.273 180.188 108.763 179.816 106.414C180.886 105.955 182.313 105.544 183.44 105.179Z" fill="#F5CC59"/>
<path d="M145.602 110.836C147.56 112.534 147.886 114.243 145.826 116.121C141.4 120.146 136.858 121.573 130.939 121.1C133.115 119.936 138.628 117.292 140.236 116.027L140.287 115.605L139.918 115.341C141.797 114.59 144.897 112.787 145.602 110.836Z" fill="#BB9541"/>
<path d="M221.737 100.855L222.774 100.939C224.393 102.615 223.54 106.491 221.947 107.954C221.127 108.706 220.079 108.532 219.085 108.467C217.221 106.13 216.784 104.927 215.949 102.189L221.737 100.855Z" fill="#259345"/>
<path d="M228.606 98.4805L229.405 98.6791C231.865 101.024 229.567 106.443 227.576 108.437C226.944 108.307 225.528 108.126 225.293 107.628C223.53 103.914 225.741 100.392 228.606 98.4805Z" fill="#259345"/>
<path d="M207.458 102.68C212.596 102.705 215.779 103.355 216.173 109.291C211.711 109.786 209.178 106.354 207.458 102.68Z" fill="#259345"/>
<path d="M119.922 111.941C120.876 111.956 120.873 111.894 121.722 112.292L121.968 113.007C121.382 114.716 119.673 115.905 118.156 116.772C116.642 116.11 116.331 116.15 115.601 114.951L115.829 114.16C117.072 112.939 118.296 112.606 119.922 111.941Z" fill="#BB9541"/>
<path d="M98.7233 101.617L97.7188 103.265L97.8452 103.648C98.875 103.633 99.9301 103.601 100.956 103.615C99.1424 104.569 94.1814 107.361 92.3458 106.823C92.8698 104.991 96.9455 102.759 98.7233 101.617Z" fill="#F5CC59"/>
<path d="M68.6788 225.547C72.5703 225.013 77.1845 225.331 80.9351 226.534C82.9296 227.177 85.1012 228.242 86.019 230.244C86.5465 231.396 86.6405 233.076 86.0659 234.232C84.393 237.589 78.0192 238.705 74.6733 239.709C74.8431 240.558 74.9948 241.411 75.1285 242.263C75.3273 243.589 75.1105 244.695 74.2578 245.753C71.8296 248.752 65.5244 248.763 61.9509 249.25L61.3077 249.268C55.4831 249.42 47.6965 249.742 43.198 245.457C42.8258 234.099 48.7914 239.962 53.9258 234.333C54.9123 233.253 54.9412 231.223 55.7722 229.984C57.6909 227.126 65.4847 225.894 68.6788 225.547Z" fill="#010202"/>
<path d="M58.9519 230.321C65.304 227.116 80.5593 223.348 84.281 231.657C83.7751 237.915 72.0825 237.654 67.3563 238.204C64.9969 238.478 59.483 237.319 57.9907 235.483C56.549 233.709 57.1561 231.596 58.9519 230.321Z" fill="#BB9541"/>
<path d="M58.9519 230.321C65.3041 227.116 80.5593 223.348 84.281 231.657C82.3732 232.391 77.8566 233.233 75.9271 232.73C73.7266 232.561 71.0239 232.654 68.7764 232.676C66.1712 232.326 60.6791 231.932 58.9519 230.321Z" fill="#F5CC59"/>
<path d="M68.7764 232.674C71.0238 232.653 73.7266 232.559 75.9271 232.729C75.7717 233.498 75.9451 233.158 75.2333 233.679C73.5206 233.888 69.7483 234.311 68.7764 232.674Z" fill="#32261D"/>
<path d="M45.5467 241.257C46.8077 239.497 48.0832 238.02 50.3379 237.687C52.6576 237.348 70.3302 239.884 71.9381 241.174C72.0682 241.275 72.1838 241.394 72.3066 241.506C72.5668 242.062 72.7692 242.572 73.0004 243.142C72.1368 247.749 61.3548 247.785 57.6259 247.77C54.6558 247.759 48.5276 247.629 46.2079 245.411C45.142 244.389 45.4274 242.633 45.5467 241.257Z" fill="#BB9541"/>
<path d="M45.5466 241.257C46.8077 239.497 48.0832 238.02 50.3378 237.687C52.6576 237.348 70.3301 239.884 71.9381 241.174C72.0681 241.275 72.1838 241.394 72.3066 241.506C69.3437 244.75 49.4201 243.955 45.5466 241.257Z" fill="#F5CC59"/>
<path d="M53.868 243.914C56.2853 243.582 62.605 243.13 64.5706 244.326L64.5923 245.114C61.5174 244.723 58.0378 245.818 55.0893 245.099C54.2619 244.9 54.251 244.615 53.868 243.914Z" fill="#010202"/>
<path d="M248.219 221.928C251.977 221.61 256.638 221.842 259.85 223.98C261.476 225.064 262.68 226.679 262.958 228.641C263.225 230.537 262.582 232.304 261.346 233.735C257.769 237.878 250.694 239.356 245.509 239.833C240.899 240.097 236.617 240.057 232.603 237.369C231.161 236.401 229.965 235.068 229.69 233.301C229.445 231.726 230.048 230.122 230.991 228.879C234.796 223.872 242.424 222.745 248.219 221.928Z" fill="#010202"/>
<path d="M232.874 230.064C237.112 224.576 244.122 223.391 250.752 223.113C254.77 222.947 257.867 224.627 260.588 227.459C266.051 239.384 226.547 242.842 232.874 230.064Z" fill="#BB9541"/>
<path d="M232.874 230.064C237.112 224.576 244.122 223.391 250.752 223.113C254.77 222.947 257.867 224.627 260.588 227.459C258.878 228.792 257.549 228.825 255.428 228.348L255.207 228.452C250.142 230.071 245.798 231.093 240.48 231.689C237.831 234.114 235.045 231.866 232.874 230.064Z" fill="#F5CC59"/>
<path d="M255.207 228.453L255.251 229.205C252.779 231.152 243.085 233.652 240.613 232.134L240.479 231.69C245.798 231.094 250.141 230.072 255.207 228.453Z" fill="#010202"/>
<path d="M159.069 235.655C163.502 235.236 169.341 235.091 173.341 237.349C174.884 238.216 176.178 239.589 176.542 241.363C176.824 242.732 176.459 244.098 175.646 245.218C173.146 248.672 166.928 249.73 162.989 250.42C158.032 250.745 151.445 251.107 147.058 248.278C145.891 247.526 144.941 246.493 144.738 245.077C144.532 243.61 145.172 242.227 146.108 241.132C149.215 237.483 154.512 236.143 159.069 235.655Z" fill="#010202"/>
<path d="M147.893 242.381C152.413 235.878 168.622 234.722 174.299 240.076C174.469 241.759 174.739 242.984 173.645 244.404C171 247.644 165.753 248.811 161.724 249.151C157.537 249.505 151.546 249.169 148.102 246.542C146.653 245.433 147.134 243.75 147.893 242.381Z" fill="#F5CC59"/>
<path d="M174.299 240.074C174.469 241.758 174.739 242.982 173.645 244.402C171 247.643 165.753 248.81 161.724 249.149C157.537 249.503 151.546 249.167 148.102 246.541C146.653 245.432 147.134 243.748 147.893 242.379C149.49 243.553 152.041 243.741 154.003 243.907C158.274 243.683 162.942 243.55 167.152 242.968C169.052 241.776 172.875 242.939 174.299 240.074Z" fill="#BB9541"/>
<path d="M167.152 242.969L167.824 243.341C166.523 245.494 156.521 245.436 154.501 244.587L154.003 243.908C158.274 243.684 162.942 243.55 167.152 242.969Z" fill="#010202"/>
<path d="M35.4295 212.969C53.7199 211.462 65.9075 222.47 40.7519 226.798C16.5609 231.227 14.0244 215.458 35.4295 212.969Z" fill="#BB9541"/>
<path d="M35.7401 214.043C41.413 213.768 43.787 214.4 49.3297 216.015C47.4364 218.085 45.7236 218.024 44.3253 219.494C40.6 220.509 34.1792 221.608 30.3166 221.456C28.1306 220.661 25.9373 221.716 23.9536 220.383C26.5154 216.17 31.2235 214.993 35.7401 214.043Z" fill="#F5CC59"/>
<path d="M40.7519 226.798C16.5609 231.227 14.0244 215.458 35.4295 212.969L35.7402 214.042C31.2236 214.992 26.5155 216.17 23.9537 220.382C23.9645 221.574 23.773 222.629 24.8678 223.529C28.239 226.314 36.2425 225.696 40.3436 225.339L40.7519 226.798Z" fill="#5E564E"/>
<path d="M35.4294 212.969C53.7199 211.462 65.9075 222.47 40.7518 226.798L40.3435 225.339C44.0038 224.746 50.4101 223.576 52.3902 220.082C52.4914 217.73 51.5375 216.672 49.3298 216.014C43.787 214.399 41.413 213.767 35.7402 214.042L35.4294 212.969Z" fill="#5E564E"/>
<path d="M44.3253 219.492L44.9612 220.096C43.5665 222.563 32.911 223.809 30.3167 221.454C34.1792 221.606 40.6 220.507 44.3253 219.492Z" fill="#0D0902"/>
<path d="M289.255 220.082C293.407 219.327 299.221 220.682 302.805 222.856C304.406 223.825 305.869 225.27 306.23 227.174C306.491 228.557 306.024 229.941 305.157 231.017C302.426 234.41 297.255 234.861 293.266 235.396C288.912 235.804 283.59 236.111 279.644 233.911C278.014 233.001 276.695 231.61 276.255 229.757C275.922 228.359 276.226 226.928 277.003 225.728C279.442 221.96 285.165 220.822 289.255 220.082Z" fill="#010202"/>
<path d="M278.936 226.71C282.827 220.207 299.38 219.976 304.344 225.901C304.323 227.606 304.38 228.744 302.942 230.034C297.801 234.64 285.02 235.117 279.554 230.958C278.343 230.037 278.701 228.075 278.936 226.71Z" fill="#F5CC59"/>
<path d="M304.344 225.902C304.323 227.608 304.38 228.746 302.942 230.035C297.801 234.641 285.02 235.118 279.554 230.96C278.343 230.039 278.701 228.077 278.936 226.712C281.039 228.601 283.554 228.713 286.354 229.194C286.928 228.731 287.004 228.247 287.329 227.503C288.366 228.135 289.364 228.178 290.574 228.377C292.402 228.72 293.653 228.677 295.34 228.005L295.868 228.724C298.57 229.266 303.091 228.662 304.344 225.902Z" fill="#BB9541"/>
<path d="M287.329 227.504C288.366 228.136 289.364 228.179 290.574 228.378C289.317 229.234 287.904 229.921 286.354 229.195C286.928 228.732 287.004 228.248 287.329 227.504Z" fill="#E5AB02"/>
<path d="M287.329 227.501L287.705 227.082C290.086 227.107 292.735 227.078 295.091 227.277L295.394 227.718L295.34 228.003C293.652 228.675 292.402 228.719 290.574 228.375C289.363 228.177 288.366 228.133 287.329 227.501Z" fill="#0D0902"/>
<path d="M23.6718 197.681C27.2418 197.37 30.8948 197.587 34.2732 198.869C35.9317 199.501 39.115 200.965 39.6642 202.872C39.9208 203.754 39.7618 204.418 39.3029 205.195C37.1783 208.772 30.2372 209.447 26.5444 210.321C22.3421 210.766 16.5717 210.813 12.9006 208.465C11.907 207.832 11.0759 206.875 10.8627 205.686C10.6857 204.696 11.0001 203.692 11.5601 202.879C13.8618 199.512 19.896 198.32 23.6718 197.681Z" fill="#010202"/>
<path d="M13.786 203.708C17.6486 198.133 29.6771 197.591 35.2127 200.948C43.5811 208.776 13.0705 213.025 13.786 203.708Z" fill="#BB9541"/>
<path d="M13.7859 203.708C17.6485 198.133 29.6771 197.591 35.2126 200.948C32.8206 203.747 16.102 205.655 13.7859 203.708Z" fill="#F5CC59"/>
</svg>
