<svg width="600" height="583" viewBox="0 0 600 583" fill="none" xmlns="http://www.w3.org/2000/svg">
<path d="M276.979 1.42539C283.43 -0.588802 302.3 0.056579 309.475 0.265905C358.857 1.70649 403.975 10.0735 447.97 33.7889C515.221 70.0423 564.662 132.547 587.165 205.094C591.914 220.396 595.412 236.059 597.624 251.928C598.16 255.937 598.421 260.502 598.863 264.567C599.224 267.872 599.045 270.918 600 274.223V308.411C598.23 314.294 598.415 325.013 597.384 331.503C595.825 341.302 594.284 350.938 591.583 360.533C571.102 437.507 524.722 500.299 455.271 539.976C432.867 552.776 410.915 561.981 386.177 569.238C383.481 570.029 374.804 572.792 372.366 572.812C373.562 571.708 376.931 571.192 378.586 570.694C390.639 567.061 402.387 562.368 413.701 556.845C416.247 555.603 419.868 554.071 422.019 552.325C411.407 556.939 395.602 564.723 384.548 567.498C379.189 569.935 370.784 571.166 365.848 573.216C366.032 573.969 366.208 573.846 367.09 574.421C363.732 575.001 359.438 575.012 355.969 575.683C348.293 577.169 340.564 579.032 332.783 579.993C278.728 586.667 220.745 579.038 170.892 556.886C150.195 547.69 134.007 537.726 116.243 524.276C109.043 519.093 101.484 512.176 94.9605 506.118C44.4103 459.178 10.106 394.371 1.94161 325.699C1.41923 321.304 2.15568 312.518 0 309.137V272.592C1.19294 269.68 1.47757 257.78 2.01089 253.85C4.40725 235.842 8.56186 218.111 14.4152 200.913C15.2782 198.387 17.1408 192.59 18.2911 190.353C18.4228 189.899 18.5396 189.555 18.7106 189.114C44.8286 121.759 94.8381 66.3817 159.191 33.5554C167.313 29.3794 173.655 27.3316 181.632 23.7858C182.32 23.8532 182.051 23.7093 182.478 24.135L181.68 25.0702C182.166 25.0775 202.372 18.1533 204.277 17.3629C207.815 15.8945 220.429 13.407 222.403 12.4619C227.877 9.83963 263.297 4.86619 265.838 2.8808C269.176 1.95546 272.697 2.51854 276.979 1.42539Z" fill="#E9C350"/>
<path d="M276.979 1.42539C283.43 -0.588802 302.3 0.056579 309.475 0.265905C358.857 1.70649 403.975 10.0735 447.97 33.7889C515.221 70.0423 564.662 132.547 587.165 205.094C591.914 220.396 595.412 236.059 597.624 251.928C598.16 255.937 598.421 260.502 598.863 264.567C599.224 267.872 599.045 270.917 600 274.223V308.411C598.23 314.294 598.415 325.013 597.384 331.503C595.825 341.302 594.284 350.938 591.583 360.533C571.102 437.507 524.722 500.299 455.27 539.976C432.867 552.776 410.915 561.981 386.177 569.238C383.481 570.029 374.804 572.792 372.366 572.812C373.561 571.708 376.931 571.192 378.586 570.694C390.639 567.061 402.387 562.368 413.701 556.845C416.247 555.603 419.868 554.071 422.018 552.325C423.316 551.229 434.232 545.882 436.397 544.678C444.806 539.918 452.971 534.744 460.869 529.18C467.452 524.531 473.845 519.615 480.026 514.444C495.844 501.061 535.427 463.807 538.849 443.422L538.289 442.883C538.321 442.611 539.458 440.742 539.727 440.212C542.868 434.666 545.156 428.08 548.361 422.39C564.773 393.266 574.166 361.535 578.54 328.453C579.451 321.553 579.894 314.727 580.638 307.831C580.559 306.378 580.728 304.025 580.857 302.554C581.678 293.047 580.939 283.844 580.626 274.345C580.389 272.517 580.26 270.695 580.096 268.858C578.165 247.151 574.216 225.288 566.604 204.813C559.418 185.479 549.173 167.456 541.673 148.262C541.145 146.913 540.12 145.592 539.563 144.253L539.426 143.913C538.749 142.207 534.489 136.007 533.297 134.178C519.768 113.564 503.681 94.7457 485.423 78.1725C481.752 74.8543 476.692 70.3423 472.737 67.4252C466.424 61.8788 458.572 56.2083 451.582 51.4933C427.377 35.0578 400.772 22.4742 372.715 14.1909C365.722 12.2141 358.664 10.4716 351.554 8.96655C348.644 8.341 344.016 7.765 341.355 6.8185C339.762 6.61463 338.074 6.26796 336.48 5.99377C326.593 4.29147 316.585 2.69022 306.557 2.0742C301.084 1.74985 295.6 1.62156 290.117 1.68959C286.335 1.71422 280.606 1.89343 276.979 1.42539Z" fill="#C09201"/>
<path d="M539.426 143.912L540.437 143.371C544.45 144.903 553.564 161.566 555.516 166.411C565.348 190.791 573.583 216.616 578.212 242.514C578.701 245.245 580.081 250.046 578.701 252.346L578.774 252.908L579.275 252.821L579.647 251.895C580.31 254.996 581.174 266.037 581.367 269.304C582.337 274.089 582.088 313.601 580.972 318.259C579.917 330.909 578.001 343.472 575.241 355.862C572.537 368.137 568.995 380.005 565.002 391.917C559.866 407.242 554.856 423.218 545.033 436.308C543.967 437.726 541.778 441.162 540.132 441.461L539.728 440.21C542.868 434.664 545.156 428.078 548.361 422.389C564.773 393.265 574.166 361.533 578.54 328.451C579.451 321.552 579.894 314.726 580.638 307.829C580.559 306.376 580.729 304.024 580.857 302.553C581.678 293.046 580.939 283.843 580.626 274.343C580.389 272.516 580.26 270.694 580.096 268.856C578.165 247.149 574.216 225.287 566.604 204.812C559.418 185.477 549.173 167.454 541.673 148.261C541.146 146.911 540.12 145.59 539.563 144.252L539.426 143.912Z" fill="#D7A301"/>
<path d="M341.355 6.81638C342.943 5.67433 359.171 10.338 362.241 10.6586C363.782 10.8193 365.08 11.876 367.022 11.9212C366.278 10.9357 353.312 8.04377 350.9 7.43492L351.009 7.27628C365.215 10.5959 379.113 14.4082 392.824 19.4569C409.907 25.748 464.713 51.3072 473.171 65.5206C473.449 65.989 473.59 66.3315 473.584 66.887L472.737 67.4231C466.424 61.8766 458.572 56.2062 451.582 51.4912C427.377 35.0556 400.772 22.472 372.715 14.1887C365.722 12.212 358.664 10.4695 351.554 8.96443C348.645 8.33888 344.016 7.76287 341.355 6.81638Z" fill="#D7A301"/>
<path d="M18.2911 190.352C17.9931 195.27 16.3372 197.779 15.2235 202.047L10.5313 219.919C7.50858 231.226 5.34475 243.074 3.85638 254.668C-6.43922 334.873 20.1132 418.519 72.0809 480.054C79.2627 488.559 87.0524 496.888 95.1278 504.555C98.5523 507.807 102.194 511.202 105.811 514.234C108.729 516.681 112.11 518.816 114.703 521.608C115.465 522.432 115.861 523.229 116.243 524.274C109.043 519.092 101.484 512.175 94.9605 506.116C44.4103 459.177 10.106 394.369 1.94161 325.697C1.41923 321.303 2.15568 312.517 0 309.136V272.591C1.19294 269.679 1.47757 257.778 2.01089 253.848C4.40725 235.84 8.56186 218.11 14.4152 200.911C15.2782 198.385 17.1408 192.589 18.2911 190.352Z" fill="#D7A301"/>
<path d="M384.548 567.497C385.553 566.451 392.42 563.996 394.318 563.217C403.119 559.666 411.771 555.758 420.246 551.495C458.332 531.995 491.815 504.588 518.461 471.11C525.404 462.304 532.058 452.158 538.289 442.883L538.849 443.422C535.427 463.807 495.844 501.061 480.026 514.443C473.845 519.614 467.452 524.53 460.869 529.18C452.971 534.743 444.806 539.917 436.397 544.678C434.232 545.882 423.316 551.228 422.019 552.324C411.407 556.938 395.602 564.723 384.548 567.497Z" fill="#D7A301"/>
<path d="M290.924 41.4392C291.797 41.3999 292.67 41.3771 293.543 41.3709C307.468 41.2739 322.939 43.0842 336.542 45.7074C387.223 55.3619 433.887 79.8664 470.607 116.107C515.809 161.329 541.186 222.661 541.154 286.602C541.359 354.483 516.302 421.825 468.105 470.206C421.087 517.025 357.331 543.152 290.979 542.792C246.757 542.434 204.481 531.492 165.718 509.932C88.2263 466.837 43.6643 385.637 41.1705 297.509C39.5126 230.568 64.5116 165.708 110.669 117.196C147.234 78.5779 194.925 56.9135 246.569 46.9833C262.157 43.9862 275.192 41.8581 290.924 41.4392Z" fill="#D7A301"/>
<path d="M293.297 51.0783C294.627 51.0188 295.957 50.9849 297.29 50.9764C314.971 50.7827 331.661 53.0427 348.908 56.9901C393.609 66.7703 434.689 88.854 467.502 120.747C512.672 165.919 538.06 227.176 538.084 291.056C539.083 355.392 514.289 417.448 469.23 463.38C424.503 508.099 364.008 533.473 300.762 534.05C240.928 534.437 181.225 513.536 136.411 473.528C88.1173 430.251 59.0015 369.557 55.4724 304.805C51.8032 238.733 74.293 179.608 118.176 130.507C153.745 90.7073 198.701 68.0072 250.549 57.2538C263.936 54.4773 279.649 51.8257 293.297 51.0783Z" fill="#E9C350"/>
<path d="M292.797 174.241C292.447 173.279 291.989 172.489 292.277 171.57C294.524 171.23 299.039 176.55 300.088 178.453C314.731 205.018 329.716 231.472 345.451 257.409C346.749 259.548 349.055 266.253 348.091 268.565L347.566 268.684C347.033 268.193 346.954 268.117 346.526 267.538C346.503 267.802 346.541 268.286 346.553 268.569C346.954 269.013 347.25 269.407 347.991 269.21C364.175 264.953 380.473 260.932 396.565 256.288C409.216 252.638 419.977 246.997 433.488 248.388C435.193 243.976 441.601 242.332 445.822 242.719C446.918 240.811 448.178 241.836 450.094 242.564C445.992 251.622 442.154 260.659 437.777 269.608C425.731 294.27 412.749 318.425 400.225 342.844C396.308 350.637 393.12 359.338 389.698 367.301C387.513 372.387 381.914 384.033 376.462 386.089C372.17 387.709 362.142 385.852 356.774 386.347C340.277 387.159 319.439 386.655 302.862 386.499C282.051 386.236 261.239 386.174 240.428 386.321C230.435 386.335 220.489 386.189 210.495 386.376C209.669 385.899 209.935 386.051 209.59 384.788C209.586 383.59 199.552 366.545 198.293 364.31C192.58 354.126 187.007 343.864 181.577 333.525C171.294 314.107 161.601 294.381 152.509 274.377C148.624 265.786 144.29 256.408 140.953 247.602C140.064 245.487 140.22 244.306 142.191 243.266C139.611 241.833 138.904 241.257 137.037 238.938C161.943 241.103 182.037 250.114 205.594 257.53C215.424 260.624 225.466 261.213 234.174 266.712C234.773 266.316 234.625 266.397 235.271 266.138C236.374 266.453 236.966 267.46 237.713 268.387C239.692 265.185 241.604 261.179 243.401 257.826C247.163 250.807 250.757 243.617 254.577 236.632L290.659 172.163C291.503 173.204 291.706 173.811 292.797 174.241Z" fill="#D7A301"/>
<path d="M445.822 242.716C446.918 240.808 448.178 241.834 450.094 242.561C445.992 251.619 442.154 260.656 437.777 269.605C425.73 294.267 412.749 318.422 400.225 342.841C396.308 350.634 393.12 359.335 389.698 367.298C387.513 372.384 381.914 384.03 376.462 386.086C372.17 387.706 362.142 385.849 356.774 386.344L356.848 385.79L357.677 385.623C360.533 386.643 370.093 385.682 372.8 384.17C377.265 381.68 380.001 377.927 382.465 373.553C388.216 363.73 391.28 352.295 396.434 342.226C411.829 312.132 427.125 282.032 441.592 251.477C442.872 248.771 444.967 245.456 445.822 242.716Z" fill="#C09201"/>
<path d="M140.953 247.602C148.881 249.113 156.528 273.537 160.091 280.686C165.668 291.876 171.318 303.229 176.919 314.417C184.801 330.533 192.932 346.529 201.309 362.397C204.607 368.616 207.303 374.751 210.197 381.161C210.815 382.529 212.588 383.64 213.858 384.384L213.968 384.624C212.205 384.908 211.598 384.185 209.591 384.788C209.586 383.59 199.552 366.545 198.293 364.31C192.58 354.126 187.007 343.863 181.577 333.525C171.294 314.107 161.601 294.381 152.509 274.377C148.624 265.786 144.29 256.408 140.953 247.602Z" fill="#E0B022"/>
<path d="M137.037 238.938C161.943 241.103 182.037 250.114 205.594 257.53C215.424 260.624 225.466 261.212 234.174 266.712C234.518 267.4 234.443 267.04 234.414 267.788C233.357 268.212 229.912 267.13 228.502 266.894C207.304 263.334 186.899 256.388 166.288 250.479C158.013 248.107 150.026 247.073 142.191 243.266C139.611 241.833 138.904 241.257 137.037 238.938Z" fill="#C09201"/>
<path d="M292.797 174.241C292.447 173.279 291.989 172.489 292.277 171.57C294.524 171.23 299.039 176.55 300.088 178.453C314.731 205.018 329.716 231.472 345.451 257.409C346.749 259.548 349.055 266.253 348.091 268.565L347.566 268.684C347.033 268.193 346.954 268.117 346.526 267.538C344.107 262.543 342.278 258.685 339.445 253.888C335.449 247.131 330.914 240.636 327.018 233.826C317.271 216.797 309.917 198.285 298.57 182.222C296.883 179.833 294.571 177.191 293.098 174.75L292.797 174.241Z" fill="#C09201"/>
<path d="M356.848 385.794C349.79 385.671 341.947 385.407 334.937 384.581C337.354 384.458 340.38 383.974 342.709 384.262C345.935 384.657 355.21 384.209 357.677 385.627L356.848 385.794Z" fill="#E9C350"/>
<path d="M264.127 383.315C280.78 382.869 297.445 383.177 314.071 384.235C314.528 384.592 314.259 384.501 314.9 384.446L314.405 384.311L314.226 384.542C311.71 384.695 308.845 384.633 306.299 384.636C295.301 384.516 284.302 384.51 273.304 384.616C268.259 384.651 258.081 384.952 253.468 384.378C257.437 383.892 260.062 383.426 264.127 383.315Z" fill="#E0B022"/>
<path d="M181.632 23.7839C182.335 23.0113 188.617 20.9669 189.878 20.4972C209.3 13.1692 229.424 7.85404 249.932 4.63534C254.974 3.88687 260.728 3.40271 265.838 2.87891C263.297 4.8643 227.877 9.83773 222.403 12.46C220.429 13.4051 207.815 15.8926 204.277 17.361C202.372 18.1514 182.166 25.0756 181.68 25.0683L182.478 24.1331C182.051 23.7074 182.32 23.8513 181.632 23.7839Z" fill="#E0B022" fill-opacity="0.972549"/>
<path d="M384.548 567.497C395.602 564.723 411.407 556.938 422.019 552.324C419.868 554.07 416.247 555.603 413.701 556.845C402.387 562.367 390.639 567.061 378.586 570.693C376.931 571.191 373.562 571.707 372.366 572.812C370.793 574.197 369.152 573.239 367.09 574.42C366.208 573.846 366.032 573.969 365.848 573.216C370.784 571.165 379.189 569.935 384.548 567.497Z" fill="#E0B022" fill-opacity="0.0156863"/>
</svg>
